<?xml version="1.0" standalone="yes"?>
<svg xmlns="http://www.w3.org/2000/svg" width="300" height="300">
<path style="fill:#f7f7fa; stroke:none;" d="M0 0L0 300L7 300L7 0L0 0z"/>
<path style="fill:#0a0904; stroke:none;" d="M7 0L7 300L300 300L300 0L7 0z"/>
<path style="fill:#f3c901; stroke:none;" d="M132 1L135 15L131 13L135 27L129 25L136 33L133 35L144 37L144 38L139 38C141.156 41.0404 143.534 40.7448 147 40L143 44L148 49L149 49L158 49L159 49L164 44L160 40C163.466 40.7448 165.844 41.0405 168 38L163 38L163 37L174 35L171 33L178 25L172 27L176 13L172 15L175 1C160.654 3.59882 167.933 17.4754 158 24L154 14L153 14L149 24C139.067 17.4754 146.346 3.59882 132 1z"/>
<path style="fill:#5c6fbd; stroke:none;" d="M135 1L136 2L135 1M171 1L172 2L171 1M132 2L133 3L132 2M137 2L138 3L137 2M169 2L170 3L169 2M174 2L175 3L174 2M133 4L134 5L133 4M140 4L141 5L140 4M166 4L167 5L166 4M173 4L174 5L173 4M134.333 7.66666L134.667 8.33334L134.333 7.66666M172.333 7.66666L172.667 8.33334L172.333 7.66666M142 8L143 9L142 8M164 8L165 9L164 8M130 13L130 17L131 17L130 13M132 13L133 14L132 13M153 13L154 14L153 13M174 13L175 14L174 13M176 13L176 17L177 17L176 13M134 14L135 15L134 14M172 14L173 15L172 14M151 18L152 19L151 18M155 18L156 19L155 18M150 19L151 20L150 19M156 19L157 20L156 19M131 20L132 21L131 20M143 20L144 21L143 20M163 20L164 21L163 20M175 20L176 21L175 20M144 21L145 22L144 21M148 21L148 24L149 24L148 21M158 21L158 24L159 24L158 21M162 21L163 22L162 21M146 22L147 23L146 22M160 22L161 23L160 22M133 24L134 27L135 27L133 24M149 24L151 29L147 30L147 31L152 31L153 31L151 28L149 24M156 24L156 28L154 31L155 31L156 29L160 31L160 30L156 29L158 24L156 24M173 24L172 27L173 27L173 24z"/>
<path style="fill:#0a0904; stroke:none;" d="M133 25L134 26L133 25z"/>
<path style="fill:#5c6fbd; stroke:none;" d="M138 25L138 26L145 29L145 28L138 25M168 25L162 28L162 29L169 26L168 25z"/>
<path style="fill:#0a0904; stroke:none;" d="M173 25L174 26L173 25z"/>
<path style="fill:#5c6fbd; stroke:none;" d="M130 27L131 28L130 27M135 27L135 28L140 30L140 29L135 27M148 27L147 29L148 27z"/>
<path style="fill:#0a0904; stroke:none;" d="M151 27L152 28L151 27M155 27L156 28L155 27z"/>
<path style="fill:#5c6fbd; stroke:none;" d="M158 27L160 29L158 27M167 29L167 30L172 28L167 29M176 27L177 28L176 27z"/>
<path style="fill:#f3c901; stroke:none;" d="M151 29L148 31L150 41L157 41L159 31L155 29L154 32L153 32L151 29z"/>
<path style="fill:#5c6fbd; stroke:none;" d="M141.667 30.3333L142.333 30.6667L141.667 30.3333z"/>
<path style="fill:#0a0904; stroke:none;" d="M153.333 30.6667L153.667 31.3333L153.333 30.6667z"/>
<path style="fill:#5c6fbd; stroke:none;" d="M164.667 30.3333L165.333 30.6667L164.667 30.3333z"/>
<path style="fill:#0a0904; stroke:none;" d="M147 31L148 32L147 31M159 31L160 32L159 31z"/>
<path style="fill:#5c6fbd; stroke:none;" d="M135 32L136 33L135 32M147 32L151 42L147 32M159 32L156 42C159.233 39.7836 160.531 35.6918 159 32M171 32L172 33L171 32M133.667 33.3333L134.333 33.6667L133.667 33.3333M136 33L136 34L139 34L136 33M168 33L168 34L171 34L168 33M172.667 33.3333L173.333 33.6667L172.667 33.3333M132 34L133 35L132 34z"/>
<path style="fill:#0a0904; stroke:none;" d="M147 34L148 35L147 34M159 34L160 35L159 34z"/>
<path style="fill:#5c6fbd; stroke:none;" d="M174 34L175 35L174 34M104 37L104 38L107 38L104 37M138 39L144 38L138 39M163 37L163 38L169 39L163 37M93.6667 38.3333L94.3333 38.6667L93.6667 38.3333z"/>
<path style="fill:#f3c901; stroke:none;" d="M49 80L64 56C50.5642 62.6927 50.6633 72.1369 44.7515 84C38.864 95.8145 30.5053 107.184 27 120L26 120L33.7724 101L41 77C33.047 82.6059 22.8252 94.7658 22.1204 105C21.6635 111.635 24.9141 118.187 24.4861 125C23.6722 137.956 21.1073 151.041 21 164L20 164L16.5386 153L18.9028 139L17 117L16 117C12.8667 126.262 7.37589 136.908 9.2284 146.996C10.2767 152.704 16.2428 158.462 18.6914 164C22.6053 172.853 23 181.488 23 191L20 191L9 158L8 158C8 168.181 6.49054 196.635 23 192L43 232L33.3511 217.185L15 198L14 198C16.0643 208.001 19.3617 223.044 28.0432 229.486C31.3843 231.965 34.8262 231.057 38.4244 232.374C44.9086 234.748 61.7597 247.685 60 255L59 255C58.6292 246.322 38.8799 240.785 32 236C35.6098 244.367 44.9792 260.555 55 261L53 265L72 257L73 275L74 275L82 263L87 264C90.6431 272.037 104.094 273.709 112 277L112 278L75 274L75 275C84.8492 280.463 96.966 290.108 109 288.797C117.431 287.879 123.589 279.135 133 280.672C142.636 282.246 156.778 286.521 166 290.258C173.975 293.489 176.883 298.687 186 298C176.636 285.316 158.777 286.026 145 281.795C139.168 280.004 131.924 277.334 127.213 273.363C123.673 270.378 122.438 266.029 117.985 263.97C109.855 260.211 100.176 262.702 92 265L92 266C98.2614 265.353 101.87 267.388 106 272C98.1721 269.125 91.3711 268.695 88 260L84 262L101 248L101 247C97.2549 247.028 93.2723 247.82 90 245.593C86.6269 243.296 83.4345 237.362 79 237.167C73.0579 236.907 65.7925 247.208 62 251C64.248 234.694 58.1792 222.767 49 210L48 210C49.1442 224.499 54.4228 232.073 60 245C55.629 240.974 48.9044 237.227 46.0131 231.961C39.6326 220.338 46.6312 213.144 46.6312 202C46.6312 195.876 42.5528 189.387 40 184L39 184L39 212C35.6095 208.316 30.0677 203.493 30.588 198C31.1197 192.385 36.1714 188.572 36.8657 183C37.653 176.683 35.1306 170.325 35 164L34 164C28.0254 176.776 30.5418 185.946 29 199L28 199C26.012 190.307 22.2682 177.88 24.6921 169.004C26.3241 163.028 33.0415 161.269 35.6821 155.985C38.3282 150.69 36.638 143.721 38 138L23 166C23 158.432 22.3925 149.386 27.189 143.019C30.2833 138.911 35.8312 137.322 38.3125 132.895C41.3875 127.409 41.7822 119.95 44 114L31.0748 127L25 142C25.0313 130.66 26.7858 120.579 37 114.245C41.0514 111.733 46.2466 111.372 49.6065 107.775C53.2189 103.909 54.6089 97.679 57 93C43.7209 96.8328 41.9756 107.804 32 115L44.213 92.6381L60 88.1065L75 73L59.0903 77.9946L44 90C48.4184 82.5491 57.4388 72.1895 66 69.5224C70.5875 68.0932 75.4529 69.7261 80 68.0054C85.7647 65.824 90.804 61.2587 96 58L96 57L77.0394 59.3171L64 68L77 55.4336L109 50.4267L121 43L121 42L78 53L91 47.4668L105 39C96.5519 35.455 86.9685 40.1364 81 46.0046C69.8438 56.9736 61.7866 70.8056 49 80z"/>
<path style="fill:#5c6fbd; stroke:none;" d="M89 39L90 40L89 39M102 39L103 40L102 39M152 41L155 41L153 39L152 41M140 40L141 41L140 40M145.667 40.3333L146.333 40.6667L145.667 40.3333z"/>
<path style="fill:#0a0904; stroke:none;" d="M151 40L152 41L151 40M155 40L156 41L155 40z"/>
<path style="fill:#5c6fbd; stroke:none;" d="M160.667 40.3333L161.333 40.6667L160.667 40.3333M166 40L167 41L166 40M195.667 40.3333L196.333 40.6667L195.667 40.3333z"/>
<path style="fill:#32cb33; stroke:none;" d="M203 40L200 45L198 49L199 52L196 56C199.667 54.8111 203.464 56.4839 206.891 55.2145C215.476 52.0355 205.913 43.4608 203 40z"/>
<path style="fill:#5c6fbd; stroke:none;" d="M85 41L86 42L85 41M99 41L100 42L99 41M109 41L109 42L118 42L109 41M193 41L194 42L193 41z"/>
<path style="fill:#f7f7fa; stroke:none;" d="M190 43C191.028 47.6736 192.462 50.1842 197 52L201 42L190 43z"/>
<path style="fill:#5c6fbd; stroke:none;" d="M198 41L199 42L198 41M200 41L201 42L200 41M84 42L85 43L84 42M106 42L107 43L106 42M191 42L192 43L191 42M201 42L200 45L201 42M83 43L84 44L83 43M105 43L106 44L105 43M119 43L120 44L119 43M82 44L83 45L82 44z"/>
<path style="fill:#f3c901; stroke:none;" d="M199 44L200 45L199 44z"/>
<path style="fill:#0a0904; stroke:none;" d="M201 44L202 45L201 44z"/>
<path style="fill:#5c6fbd; stroke:none;" d="M206 44L207 45L206 44M94 45L95 46L94 45M103 45L104 46L103 45M116 45L117 46L116 45M148 45L147 47L148 45M158 45L160 47L158 45M190 45L191 46L190 45z"/>
<path style="fill:#0a0904; stroke:none;" d="M199 45L200 46L199 45z"/>
<path style="fill:#5c6fbd; stroke:none;" d="M102 46L103 47L102 46M115 46L116 47L115 46M199 46L197 48L197 49L201 49L199 46M101 47L102 48L101 47M114 47L115 48L114 47M150 47L151 48L150 47M152 47L153 48L152 47M154 47L155 48L154 47M156 47L157 48L156 47z"/>
<path style="fill:#0a0904; stroke:none;" d="M200 47L201 48L200 47z"/>
<path style="fill:#5c6fbd; stroke:none;" d="M88 48L89 49L88 48M149 48L150 49L149 48M157 48L158 49L157 48M210 48L211 49L210 48M97 49L98 50L97 49z"/>
<path style="fill:#0a0904; stroke:none;" d="M197 49L198 50L197 49z"/>
<path style="fill:#5c6fbd; stroke:none;" d="M79 50L80 51L79 50M93.6667 50.3333L94.3333 50.6667L93.6667 50.3333M99 50L100 51L99 50M101 50L102 51L101 50M109 50L110 51L109 50M193 50L194 51L193 50M197 50L197 52L199 52L199 50L197 50M78 51L79 52L78 51M89 51L90 52L89 51M95 51L96 52L95 51M136.667 51.3333L137.333 51.6667L136.667 51.3333z"/>
<path style="fill:#f3c901; stroke:none;" d="M128 58C137.105 55.1186 140.347 53.3656 150 55C144.661 47.2065 132.561 51.8793 128 58z"/>
<path style="fill:#5c6fbd; stroke:none;" d="M145 51L146 52L145 51M161 51L162 52L161 51z"/>
<path style="fill:#f3c901; stroke:none;" d="M156 54L156 55C166.033 54.0011 169.433 54.9724 179 58C173.212 50.2317 164.185 49.7098 156 54z"/>
<path style="fill:#5c6fbd; stroke:none;" d="M169.667 51.3333L170.333 51.6667L169.667 51.3333M82 52L82 53L85 53L82 52M91 52L92 53L91 52M148 52L149 53L148 52M158 52L159 53L158 52M195 52L197 54L197 52L195 52M210.667 52.3333L211.333 52.6667L210.667 52.3333M86 53L87 54L86 53M137 53L138 54L137 53M143.667 53.3333L144.333 53.6667L143.667 53.3333M162.667 53.3333L163.333 53.6667L162.667 53.3333M169 53L170 54L169 53z"/>
<path style="fill:#32cb33; stroke:none;" d="M211 53L220 58L211 53z"/>
<path style="fill:#5c6fbd; stroke:none;" d="M65 54L66 55L65 54M79.6667 54.3333L80.3333 54.6667L79.6667 54.3333M130 54L131 55L130 54M146 54L147 55L146 54M150 54L151 55L150 54M160 54L161 55L160 54M176 54L177 55L176 54M200 54L201 55L200 54z"/>
<path style="fill:#f3c901; stroke:none;" d="M64 55L65 56L64 55z"/>
<path style="fill:#5c6fbd; stroke:none;" d="M129 55L130 56L129 55M133 55L134 56L133 55M173 55L174 56L173 55M177 55L178 56L177 55M202 55L203 56L202 55M62 56L63 57L62 56M71 56L72 57L71 56M128 56L129 57L128 56M143 56L144 57L143 56z"/>
<path style="fill:#f3c901; stroke:none;" d="M143 57L143 59L164 59L164 57L143 57z"/>
<path style="fill:#5c6fbd; stroke:none;" d="M163 56L164 57L163 56M215 56L216 57L215 56M225 56L226 57L225 56z"/>
<path style="fill:#f7f7fa; stroke:none;" d="M225 70L228 69L227 62L234 61C232.679 56.4648 223.843 53.9129 221.477 59.213C219.592 63.4346 222.769 66.8642 225 70z"/>
<path style="fill:#f3c901; stroke:none;" d="M229 56L230 57L229 56z"/>
<path style="fill:#5c6fbd; stroke:none;" d="M237 56L238 57L237 56M63 57L64 58L63 57M70 57L71 58L70 57M82 57L82 58L85 58L82 57M96 57L97 58L96 57M130.333 57.6667L130.667 58.3333L130.333 57.6667M133.667 57.3333L134.333 57.6667L133.667 57.3333M172.667 57.3333L173.333 57.6667L172.667 57.3333M176.333 57.6667L176.667 58.3333L176.333 57.6667M221 57L222 58L221 57M231 57L232 58L231 57z"/>
<path style="fill:#32cb33; stroke:none;" d="M236 57C234.096 61.0009 232.461 62.4973 228 63L225 74C229.637 72.8617 248.711 78.9114 242.807 66C241.287 62.6748 238.822 60.6476 238 57L236 57z"/>
<path style="fill:#5c6fbd; stroke:none;" d="M78 58L79 59L78 58M112.667 58.3333L113.333 58.6667L112.667 58.3333z"/>
<path style="fill:#f3c901; stroke:none;" d="M102 69L105 68L105 69L92 77L92 79L93 80C96.7856 78.5672 100.09 75.6041 104 74.5957C112.543 72.3923 118.016 74.2947 124 66L106 73L106 72L110 67L105 68L122 59C113.678 56.563 104.838 60.6764 102 69z"/>
<path style="fill:#5c6fbd; stroke:none;" d="M121 58L122 59L121 58z"/>
<path style="fill:#f3c901; stroke:none;" d="M116 63L116 65C121.446 66.135 133.979 63.7682 136 58L116 63z"/>
<path style="fill:#5c6fbd; stroke:none;" d="M136.333 58.6667L136.667 59.3333L136.333 58.6667M170 58L171 59L170 58z"/>
<path style="fill:#f3c901; stroke:none;" d="M170 59L170 60C175.783 62.9062 184.569 66.3401 191 65L191 63C184.449 60.8691 176.868 57.1162 170 59z"/>
<path style="fill:#5c6fbd; stroke:none;" d="M185 58L183 61L185 58z"/>
<path style="fill:#f3c901; stroke:none;" d="M185 59L202 68L197 67L201 72L201 73L183 66C188.984 74.2947 194.457 72.3923 203 74.5957C206.91 75.6041 210.214 78.5672 214 80L215 79L215 77L202 69L202 68L205 69C202.162 60.6764 193.322 56.5631 185 59z"/>
<path style="fill:#5c6fbd; stroke:none;" d="M193.667 58.3333L194.333 58.6667L193.667 58.3333M219 58L220 61L221 61L221 58L219 58M234 58L234 62L235 62L234 58M237 58L238 59L237 58M58 59L59 60L58 59M93 59L94 60L93 59M110 59L111 60L110 59M122 59L124 61L122 59M127 59L128 60L127 59M179 59L180 60L179 59M196 59L197 60L196 59M70 60L71 61L70 60M91 60L92 61L91 60M108 60L109 61L108 60M113.667 60.3333L114.333 60.6667L113.667 60.3333z"/>
<path style="fill:#0a0904; stroke:none;" d="M105 68L111 67L106 72L106 73L123 66L123 65L116 66L120 62C114.152 58.1771 107.867 62.6064 105 68z"/>
<path style="fill:#5c6fbd; stroke:none;" d="M118 60L119 61L118 60M120.333 60.6667L120.667 61.3333L120.333 60.6667z"/>
<path style="fill:#0a0904; stroke:none;" d="M121.667 60.3333L122.333 60.6667L121.667 60.3333M184.667 60.3333L185.333 60.6667L184.667 60.3333z"/>
<path style="fill:#5c6fbd; stroke:none;" d="M186.333 60.6667L186.667 61.3333L186.333 60.6667M188 60L189 61L188 60z"/>
<path style="fill:#0a0904; stroke:none;" d="M187 61L187 62L191 66L184 65L184 66L201 73L201 72L196 67L202 68C198.799 61.9794 193.656 59.7056 187 61z"/>
<path style="fill:#5c6fbd; stroke:none;" d="M192.667 60.3333L193.333 60.6667L192.667 60.3333M198 60L199 61L198 60M67 61L68 62L67 61M69 61L70 62L69 61M90 61L91 62L90 61M134 61L135 62L134 61z"/>
<path style="fill:#f3c901; stroke:none;" d="M131 63C135.505 68.9179 144.779 64.9676 150 62L131 63M157 61L157 62C162.221 64.9676 171.495 68.9179 176 63L157 61z"/>
<path style="fill:#5c6fbd; stroke:none;" d="M172 61L173 62L172 61z"/>
<path style="fill:#f3c901; stroke:none;" d="M230 61L231 62L230 61z"/>
<path style="fill:#5c6fbd; stroke:none;" d="M231 61L231 63L233 63L233 61L231 61z"/>
<path style="fill:#0a0904; stroke:none;" d="M233 61L234 62L233 61z"/>
<path style="fill:#5c6fbd; stroke:none;" d="M105 62L106 63L105 62M117 62L118 63L117 62M130.333 62.6667L130.667 63.3333L130.333 62.6667M144 62L145 63L144 62M162 62L163 63L162 62M176.333 62.6667L176.667 63.3333L176.333 62.6667M189 62L190 63L189 62M201 62L202 63L201 62M220 62L220 65L221 65L220 62M227 62L227 66L228 66L229 62L227 62z"/>
<path style="fill:#0a0904; stroke:none;" d="M229.667 62.3333L230.333 62.6667L229.667 62.3333z"/>
<path style="fill:#5c6fbd; stroke:none;" d="M60 63L61 64L60 63M72 63L73 64L72 63M87 63L88 64L87 63M104 63L105 64L104 63M127 63L128 64L127 63M135 63L136 64L135 63M141.667 63.3333L142.333 63.6667L141.667 63.3333M147 63L148 64L147 63M159 63L160 64L159 63M164.667 63.3333L165.333 63.6667L164.667 63.3333M171 63L172 64L171 63M179 63L180 64L179 63M202 63L203 64L202 63M123 64L123 66L125 64L123 64M145 64L146 65L145 64M161 64L162 65L161 64M182 64L184 66L184 64L182 64M84 65L85 66L84 65M116 65L117 66L116 65M120 65L121 66L120 65M133 65L134 66L133 65M142 65L143 66L142 65M164 65L165 66L164 65M173 65L174 66L173 65M186 65L187 66L186 65M190 65L191 66L190 65z"/>
<path style="fill:#0a0904; stroke:none;" d="M228 65L228 69L229 69L228 65z"/>
<path style="fill:#5c6fbd; stroke:none;" d="M59 66L60 67L59 66M63 66L64 67L63 66M69 66L70 67L69 66M102 66L103 67L102 66M105 66L106 67L105 66M201 66L202 67L201 66M204 66L205 67L204 66z"/>
<path style="fill:#f3c901; stroke:none;" d="M227 66L228 67L227 66z"/>
<path style="fill:#5c6fbd; stroke:none;" d="M64 67L65 68L64 67M66 67L67 68L66 67M81 67L82 68L81 67M106 67L107 68L106 67M110.333 67.6667L110.667 68.3333L110.333 67.6667M196.333 67.6667L196.667 68.3333L196.333 67.6667M200 67L201 68L200 67M223 67L224 68L223 67M69.6667 68.3333L70.3333 68.6667L69.6667 68.3333M79 68L80 69L79 68M103.333 68.6667L103.667 69.3333L103.333 68.6667z"/>
<path style="fill:#0a0904; stroke:none;" d="M104 68L105 69L104 68z"/>
<path style="fill:#5c6fbd; stroke:none;" d="M119 68L120 69L119 68M122 68L123 69L122 68M184 68L185 69L184 68M187 68L188 69L187 68z"/>
<path style="fill:#0a0904; stroke:none;" d="M202 68L203 69L202 68z"/>
<path style="fill:#5c6fbd; stroke:none;" d="M203.333 68.6667L203.667 69.3333L203.333 68.6667M224 68L225 69L224 68M65 69L66 70L65 69M74 69L74 70L77 70L74 69M121 69L122 70L121 69M185 69L186 70L185 69M226 71L229 70L226 71M57 70L58 71L57 70M116 70L117 71L116 70M120 70L121 71L120 70M186 70L187 71L186 70M190 70L191 71L190 70M48.3333 71.6667L48.6667 72.3333L48.3333 71.6667M93 71L93 72L97 72L93 71M100 71L101 72L100 71M107 71L108 72L107 71M114 71L115 72L114 71M122 77C130.092 81.1513 135.557 75.1151 143 72C137.141 70.2035 127.054 73.8194 122 77M164 71L164 72C171.443 75.115 176.908 81.1513 185 77L164 71M192 71L193 72L192 71M199 71L200 72L199 71M206 71L207 72L206 71M210 71L210 72L214 72L210 71M58 72L59 73L58 72M90 72L91 73L90 72z"/>
<path style="fill:#f3c901; stroke:none;" d="M77 93C67.9124 87.8644 63.138 103.523 63 110L65 110C65.338 102.62 68.3672 97.4507 75 94L74 100C79.9053 96.4934 86.178 89.6886 88 83L82 86C84.3103 78.2227 89.5688 75.1555 97 73C83.5752 67.5267 81.3456 85.5854 77 93z"/>
<path style="fill:#5c6fbd; stroke:none;" d="M110 72L111 73L110 72M117 72L118 73L117 72M145 72L132 81C137.051 81.1583 143.628 77.0245 145 72M149 72L138 82C144.649 83.2144 150.281 79.6568 149 72M157 72C159.105 79.3627 160.891 83.481 169 82L157 72M161 72C164.591 76.4538 168.979 81.1887 175 81L161 72M189 72L190 73L189 72M196 72L197 73L196 72z"/>
<path style="fill:#f3c901; stroke:none;" d="M210 72L210 73C217.632 75.2139 222.299 78.2728 225 86L219 83C220.822 89.6886 227.095 96.4934 233 100L232 94C238.718 97.1416 241.669 102.778 242 110L244 110C243.862 103.523 239.088 87.8644 230 93C224.06 82.8647 224.962 72.3204 210 72z"/>
<path style="fill:#5c6fbd; stroke:none;" d="M216 72L217 73L216 72M227.667 72.3333L228.333 72.6667L227.667 72.3333M244 72L246 74L244 72M55 73L52 77L57 75L57 74L55 73M57 73L58 74L57 73M71.6667 73.3333L72.3333 73.6667L71.6667 73.3333M75 73L76 74L75 73M95 73L96 74L95 73z"/>
<path style="fill:#0a0904; stroke:none;" d="M96 73L97 74L96 73z"/>
<path style="fill:#5c6fbd; stroke:none;" d="M97 73L98 74L97 73M104 73L105 74L104 73M115 73L116 74L115 73M152 73L147 83L152 84L152 73M154 73L155 84L160 83L154 73M191 73L192 74L191 73M202 73L203 74L202 73M209 73L210 74L209 73z"/>
<path style="fill:#0a0904; stroke:none;" d="M210 73L210 74L215 79L214 80L209 78C211.782 84.321 215.932 87.0966 222 90L219 83L225 86C222.481 77.7515 217.972 75.2675 210 73z"/>
<path style="fill:#5c6fbd; stroke:none;" d="M211 73L212 74L211 73z"/>
<path style="fill:#32cb33; stroke:none;" d="M243 73L247 78L248 75L243 73z"/>
<path style="fill:#0a0904; stroke:none;" d="M55 74L56 75L55 74z"/>
<path style="fill:#5c6fbd; stroke:none;" d="M67 74L68 75L67 74M74 74L75 75L74 74M86 74L87 75L86 74M91 74L92 75L91 74z"/>
<path style="fill:#0a0904; stroke:none;" d="M82 86L88 83L85 90C91.0678 87.0967 95.2179 84.321 98 78L93 80L92 79L96 75C88.5561 72.3663 83.8559 79.9228 82 86z"/>
<path style="fill:#5c6fbd; stroke:none;" d="M106.667 74.3333L107.333 74.6667L106.667 74.3333M110.667 74.3333L111.333 74.6667L110.667 74.3333M195.667 74.3333L196.333 74.6667L195.667 74.3333M199.667 74.3333L200.333 74.6667L199.667 74.3333M215 74L216 75L215 74M220 74L221 75L220 74M232 74L233 75L232 74M41 75L40 77L42 77L41 75z"/>
<path style="fill:#0a0904; stroke:none;" d="M54 75L55 76L54 75z"/>
<path style="fill:#5c6fbd; stroke:none;" d="M64 75L65 76L64 75M73 75L74 76L73 75M85 75L86 76L85 75M94 75L95 76L94 75M101 75L102 76L101 75M205 75L206 76L205 75M212 75L213 76L212 75M221 75L222 76L221 75M234 75L235 76L234 75M238 75L239 76L238 75M243 75L244 76L243 75z"/>
<path style="fill:#0a0904; stroke:none;" d="M53 76L54 77L53 76z"/>
<path style="fill:#5c6fbd; stroke:none;" d="M61 76L62 77L61 76M72 76L73 77L72 76M87 76L88 77L87 76M99 76L100 77L99 76M207 76L208 77L207 76M219 76L220 77L219 76M244 76L245 77L244 76M248 76L246 79L248 76M39 77L40 78L39 77M47.3333 77.6667L47.6667 78.3333L47.3333 77.6667z"/>
<path style="fill:#0a0904; stroke:none;" d="M50 79L53 78L50 79z"/>
<path style="fill:#5c6fbd; stroke:none;" d="M59 77L60 78L59 77M71 77L72 78L71 77M83 77L84 78L83 77M223 77L224 78L223 77M245 77L246 78L245 77z"/>
<path style="fill:#f7f7fa; stroke:none;" d="M248 77L247 91C250.657 89.6017 251.563 87.8345 252 84C256.161 83.9508 258.888 83.83 261 80L248 77z"/>
<path style="fill:#5c6fbd; stroke:none;" d="M250 77L250 78L255 78L250 77M38 78L39 79L38 78M49.3333 78.6667L49.6667 79.3333L49.3333 78.6667M51 78L52 79L51 78M70 78L71 79L70 78M82 78L83 79L82 78M96 78L97 79L96 78M98 78L97 80L98 78z"/>
<path style="fill:#f3c901; stroke:none;" d="M99 78L85 91C91.1013 90.0478 100.192 85.3376 99 78z"/>
<path style="fill:#5c6fbd; stroke:none;" d="M94 96L106 102L126 82C116.253 73.2477 99.785 87.8555 94 96M181 81L181 82L201 102L213 96C206.352 86.64 192.551 75.6629 181 81z"/>
<path style="fill:#f3c901; stroke:none;" d="M207 78C209.18 85.3391 214.459 89.8231 222 91L207 78z"/>
<path style="fill:#5c6fbd; stroke:none;" d="M208 78L209 79L208 78M210 78L211 79L210 78M224 78L225 79L224 78M255.667 78.3333L256.333 78.6667L255.667 78.3333z"/>
<path style="fill:#f3c901; stroke:none;" d="M257 78L258 79L257 78z"/>
<path style="fill:#5c6fbd; stroke:none;" d="M258 78L259 79L258 78M37 79L38 80L37 79M52 79L53 80L52 79M84 79L85 80L84 79M209 79L210 80L209 79M222 79L223 80L222 79z"/>
<path style="fill:#f3c901; stroke:none;" d="M246 79L247 80L246 79M259 79L260 80L259 79z"/>
<path style="fill:#5c6fbd; stroke:none;" d="M260 79L261 80L260 79M36 80L37 81L36 80M38 80L39 81L38 80M46 80L47 81L46 80M99 80L100 81L99 80M207 80L208 81L207 80M246.333 80.6667L246.667 81.3333L246.333 80.6667z"/>
<path style="fill:#f3c901; stroke:none;" d="M261 80L262 81L261 80z"/>
<path style="fill:#32cb33; stroke:none;" d="M253 85L246 95L263 97L266 102L263 97L265 80L253 85z"/>
<path style="fill:#5c6fbd; stroke:none;" d="M35 81L36 82L35 81M49 81L50 82L49 81M55 81L56 82L55 81M96 81L97 82L96 81M210 81L211 82L210 81M261 81L262 82L261 81M37 82L38 83L37 82M45 82L46 83L45 82M98 82L99 83L98 82M107 103L120 107L134 83C122.654 81.1679 112.448 94.2896 107 103M173 83L187 107L200 103C194.552 94.2896 184.346 81.1678 173 83M208 82L209 83L208 82z"/>
<path style="fill:#f3c901; stroke:none;" d="M246 82L247 83L246 82z"/>
<path style="fill:#5c6fbd; stroke:none;" d="M260 82L259 84L261 84L260 82M263.333 82.6667L263.667 83.3333L263.333 82.6667M66 83L67 84L66 83M82.3333 83.6667L82.6667 84.3333L82.3333 83.6667M36 84L37 85L36 84M44 84L45 85L44 84M65 84L66 85L65 84M94 84L95 85L94 84M121 108L137 111L144 85C131.387 83.4147 124.224 96.8089 121 108M163 85L170 111L186 108C182.776 96.8089 175.613 83.4147 163 85M212 84L213 85L212 84M224 84L225 85L224 84M252.333 84.6667L252.667 85.3333L252.333 84.6667z"/>
<path style="fill:#0a0904; stroke:none;" d="M253 84L253 85L260 85L253 84z"/>
<path style="fill:#5c6fbd; stroke:none;" d="M52 85L53 86L52 85M64 85L65 86L64 85M146 85L138 111L153 112L153 86L146 85M154 86L154 112L169 111L161 85L154 86M246 85L247 86L246 85M31 86L32 87L31 86M43 86L44 87L43 86M51 86L52 87L51 86M63 86L64 87L63 86M79 86L80 87L79 86z"/>
<path style="fill:#0a0904; stroke:none;" d="M81 86L82 87L81 86M225 86L226 87L225 86M252 86L252 89L253 89L252 86z"/>
<path style="fill:#5c6fbd; stroke:none;" d="M50 87L51 88L50 87M62 87L63 88L62 87M86 87L87 88L86 87M220 87L221 88L220 87M35 88L36 89L35 88M42 88L43 89L42 88M48 88L49 89L48 88M59.6667 88.3333L60.3333 88.6667L59.6667 88.3333M80 88L81 89L80 88M85 88L86 89L85 88M92 88L93 89L92 88M214 88L215 89L214 88M221 88L222 89L221 88M226 88L227 89L226 88M251 88L247 93L253 89L251 88M29 89L30 90L29 89M44.6667 89.3333L45.3333 89.6667L44.6667 89.3333M49 89L50 90L49 89M79 89L80 90L79 89M84 89L85 90L84 89M222 89L223 90L222 89M227 89L228 90L227 89M246.333 89.6667L246.667 90.3333L246.333 89.6667M266.333 89.6667L266.667 90.3333L266.333 89.6667M41 90L42 91L41 90M47 90L48 91L47 90M78 90L79 91L78 90M88 90L89 91L88 90M218 90L219 91L218 90M228 90L229 91L228 90z"/>
<path style="fill:#f3c901; stroke:none;" d="M249 90L250 91L249 90z"/>
<path style="fill:#0a0904; stroke:none;" d="M251 90L252 91L251 90z"/>
<path style="fill:#5c6fbd; stroke:none;" d="M73 91L74 92L73 91M76 91L77 92L76 91M230 91L231 92L230 91M233 91L234 92L233 91M27 92L28 93L27 92M71 92L72 93L71 92z"/>
<path style="fill:#0a0904; stroke:none;" d="M76 92L77 93L76 92M230 92L231 93L230 92z"/>
<path style="fill:#5c6fbd; stroke:none;" d="M235 92L236 93L235 92M42 93L43 94L42 93M54 93L55 94L54 93z"/>
<path style="fill:#0a0904; stroke:none;" d="M75 93L76 94L75 93M231 93L232 94L231 93z"/>
<path style="fill:#5c6fbd; stroke:none;" d="M246 93L247 94L246 93M52 94L53 95L52 94z"/>
<path style="fill:#0a0904; stroke:none;" d="M65 110L66 110L70 104L70 111L71 111L80 96L74 100L75 94C67.029 96.7176 66.3748 102.621 65 110M232 94L233 100L227 96L236 111L237 111L237 104L241 110L242 110C240.625 102.621 239.971 96.7176 232 94z"/>
<path style="fill:#5c6fbd; stroke:none;" d="M234 94L235 95L234 94M247 94L248 95L247 94M25 95L26 96L25 95M41 95L42 96L41 95M55 95L56 96L55 95M79 95L80 96L79 95M227 95L228 96L227 95M73 96L74 97L73 96M78 96L79 97L78 96z"/>
<path style="fill:#f3c901; stroke:none;" d="M80 96L70 113C75.6881 110.041 82.6895 102.963 80 96M226 96C226.394 103.596 230.248 109.487 237 113L226 96z"/>
<path style="fill:#5c6fbd; stroke:none;" d="M228 96L229 97L228 96M233 96L234 97L233 96z"/>
<path style="fill:#0a0904; stroke:none;" d="M263 96L264 97L263 96z"/>
<path style="fill:#5c6fbd; stroke:none;" d="M264 96L265 97L264 96M24 97L25 98L24 97M37 97L38 98L37 97M40 97L41 98L40 97M47 97L48 98L47 97M54 97L55 98L54 97M77 97L78 98L77 97M229 97L230 98L229 97M254 97L255 98L254 97M261 97L263 99L261 97z"/>
<path style="fill:#0a0904; stroke:none;" d="M262 97L263 98L262 97z"/>
<path style="fill:#5c6fbd; stroke:none;" d="M265 97L266 98L265 97M65 98L66 99L65 98M78 98L78 101L79 101L78 98M76 123L92 129L104 104C100.908 102.194 95.7975 98.1878 92.0394 98.8781C84.5817 100.248 77.8555 116.559 76 123M203 104L215 129L231 123C229.144 116.559 222.418 100.248 214.961 98.8781C211.202 98.1878 206.092 102.194 203 104M228 98L228 101L229 101L228 98M241 98L242 99L241 98M23 99L24 100L23 99M34 99L35 100L34 99M36 99L37 100L36 99M39 99L40 100L39 99M44 99L45 100L44 99M75 99L76 100L75 99M231 99L232 100L231 99M266 99L267 100L266 99M43 100L44 101L43 100M53 100L54 101L53 100M64 100L65 101L64 100M242 100L243 101L242 100M22 101L23 102L22 101M35 101L36 102L35 101M38 101L39 102L38 101M80 101L81 102L80 101M226 101L227 102L226 101M265 104L269 102L265 104M41 102L42 103L41 102z"/>
<path style="fill:#f7f7fa; stroke:none;" d="M261 118C265.961 117.623 268.202 115.587 270 111L282 112C274.582 97.1052 261.895 103.948 261 118z"/>
<path style="fill:#5c6fbd; stroke:none;" d="M270 102L271 103L270 102M32 103L33 104L32 103M34 103L35 104L34 103M37 103L38 104L37 103M63 103L64 104L63 103M79 103L80 104L79 103M227 103L228 104L227 103M243 103L244 104L243 103M271 103L272 104L271 103M40 104L41 105L40 104M65 104L65 108L66 108L65 104M69 104L70 105L69 104M237 104L238 105L237 104M241 104L241 108L242 108L241 104M274 104L275 105L274 104M33 105L34 106L33 105M36 105L37 106L36 105M51 105L52 106L51 105z"/>
<path style="fill:#f3c901; stroke:none;" d="M60 123L63 124L71 105C64.7034 106.982 61.9869 117.165 60 123z"/>
<path style="fill:#5c6fbd; stroke:none;" d="M78 105L79 106L78 105M105 105L94 130L104 132L104 127C115.009 126.992 116.525 118.987 118 109L105 105M189 109C190.475 118.987 191.991 126.992 203 127L203 132L213 130L202 105L189 109M228 105L229 106L228 105z"/>
<path style="fill:#f3c901; stroke:none;" d="M236 105C236.963 110.592 240.307 123.111 247 123C245.013 117.165 242.297 106.982 236 105M275 105L276 106L275 105z"/>
<path style="fill:#5c6fbd; stroke:none;" d="M21.3333 106.667L21.6667 107.333L21.3333 106.667M30 106L31 107L30 106M39 106L40 107L39 106M75 106L76 107L75 106M231 106L232 107L231 106M264 106L265 107L264 106M276.667 106.333L277.333 106.667L276.667 106.333M29 107L30 108L29 107M35 107L36 108L35 107M74 107L75 108L74 107M232 107L233 108L232 107M263 107L264 108L263 107M279 107L280 108L279 107M38 108L39 109L38 108M70 108L71 109L70 108M76 108L77 109L76 108M230 108L231 109L230 108M236 108L237 109L236 108M280 108L281 109L280 108M34 109L35 110L34 109M71 109L72 110L71 109M75 109L76 110L75 109M231 109L232 110L231 109M235 109L236 110L235 109M22 110L23 111L22 110M65 110L66 111L65 110M69 110L70 111L69 110M74 110L75 111L74 110M120 110L115 127L134 127L136 114L120 110M171 114L173 127L192 127L187 110L171 114M232 110L233 111L232 110M237 110L238 111L237 110M241 110L242 111L241 110M282 110L283 111L282 110M33 111L34 112L33 111M43 111L44 112L43 111z"/>
<path style="fill:#f3c901; stroke:none;" d="M262 111L263 112L262 111z"/>
<path style="fill:#5c6fbd; stroke:none;" d="M270.667 111.333L271.333 111.667L270.667 111.333z"/>
<path style="fill:#f3c901; stroke:none;" d="M282 111L283 112L282 111z"/>
<path style="fill:#5c6fbd; stroke:none;" d="M25 112L25 116L26 116L25 112M64 112L65 113L64 112M68 112L69 113L68 112M242 112L243 113L242 112M261 112L262 113L261 112z"/>
<path style="fill:#0a0904; stroke:none;" d="M270 112L266 119L267 119C270.416 114.758 272.711 113.963 278 115L270 112z"/>
<path style="fill:#5c6fbd; stroke:none;" d="M273 112L274 113L273 112M281.667 112.333L282.333 112.667L281.667 112.333z"/>
<path style="fill:#32cb33; stroke:none;" d="M258 122C266.439 121.276 271.37 138.144 281.566 127.581C285.882 123.11 281.869 117.316 287 113C279.629 110.478 263.296 116.591 258 122z"/>
<path style="fill:#5c6fbd; stroke:none;" d="M32 113L34 115L32 113M37 113L38 114L37 113M269 113L270 114L269 113M276 113L277 114L276 113M279 113L277 116L279 113z"/>
<path style="fill:#0a0904; stroke:none;" d="M280 113L281 114L280 113z"/>
<path style="fill:#5c6fbd; stroke:none;" d="M285 113L286 114L285 113z"/>
<path style="fill:#0a0904; stroke:none;" d="M32 114L33 115L32 114z"/>
<path style="fill:#5c6fbd; stroke:none;" d="M36 114L37 115L36 114M42 114L43 115L42 114M63 114L64 115L63 114M137 114L135 127L153 127L153 115L137 114M154 115L154 127L172 127L170 114L154 115M243 114L244 115L243 114M268 114L269 115L268 114M275 114L276 115L275 114z"/>
<path style="fill:#0a0904; stroke:none;" d="M279 114L280 115L279 114z"/>
<path style="fill:#5c6fbd; stroke:none;" d="M17 115L18 118L17 115M28 115L29 116L28 115M31 115L32 116L31 115M41 115L42 116L41 115M61.3333 115.667L61.6667 116.333L61.3333 115.667M245.333 115.667L245.667 116.333L245.333 115.667M33 116L34 117L33 116z"/>
<path style="fill:#f3c901; stroke:none;" d="M56 137C55.2627 127.658 57.3028 124.349 61 116C54.6739 119.112 48.8436 131.944 56 137M246 116C249.697 124.349 251.737 127.658 251 137C258.156 131.944 252.326 119.112 246 116z"/>
<path style="fill:#5c6fbd; stroke:none;" d="M268 116L269 117L268 116M27 117L28 118L27 117M42 117L43 118L42 117z"/>
<path style="fill:#0a0904; stroke:none;" d="M61 117C56.0515 124.334 54.8926 128.237 56 137L57 137L58 130L60 130L61 135C65.8356 130.84 65.996 126.041 66 120L65 120L60 124L61 117z"/>
<path style="fill:#5c6fbd; stroke:none;" d="M66 117L67 118L66 117M240 117L241 118L240 117z"/>
<path style="fill:#0a0904; stroke:none;" d="M245 117L247 124L242 120L241 120C241.004 126.041 241.164 130.84 246 135L247 130L249 130L250 137L251 137C252.085 128.412 251.642 123.232 245 117z"/>
<path style="fill:#5c6fbd; stroke:none;" d="M260 117L261 118L260 117M266 117L267 118L266 117M30 118L31 119L30 118M60 118L61 119L60 118M246 118L247 119L246 118M261 118L261 119L264 119L261 118z"/>
<path style="fill:#0a0904; stroke:none;" d="M264 118L265 119L264 118z"/>
<path style="fill:#5c6fbd; stroke:none;" d="M265 118L266 119L265 118M267 118L268 119L267 118M26 119L27 120L26 119M29 119L30 120L29 119M59 119L60 120L59 119M65.6667 119.333L66.3333 119.667L65.6667 119.333z"/>
<path style="fill:#f3c901; stroke:none;" d="M67 119L62 137C67.2783 132.829 69.6854 125.4 67 119M239 119C239.001 126.133 238.995 132.255 245 137L239 119z"/>
<path style="fill:#5c6fbd; stroke:none;" d="M240.667 119.333L241.333 119.667L240.667 119.333M247 119L248 120L247 119M283 119L284 120L283 119M16 120L16 123L17 123L16 120M55 120L56 121L55 120M58 120L59 121L58 120M248 120L249 121L248 120M251 120L252 121L251 120M258 120L259 121L258 120M14 121L15 122L14 121M24.3333 121.667L24.6667 122.333L24.3333 121.667M28 121L29 122L28 121M41 121L42 122L41 121M57 121L58 122L57 121M60 121L61 122L60 121M64 121L65 122L64 121M242 121L243 122L242 121M246 121L247 122L246 121M249 121L250 122L249 121M262 121L263 122L262 121M54 122L55 123L54 122M68 122L68 126L69 126L68 122M238 122L238 126L239 126L238 122M252 122L253 123L252 122M263 122L264 123L263 122M13 123L14 124L13 123M60 123L61 124L60 123M63 123L64 124L63 123M243 123L244 124L243 123M246 123L247 124L246 123M24.3333 124.667L24.6667 125.333L24.3333 124.667M27 124L28 125L27 124M32 124L33 125L32 124M53.3333 124.667L53.6667 125.333L53.3333 124.667M253.333 124.667L253.667 125.333L253.333 124.667M40.3333 125.667L40.6667 126.333L40.3333 125.667M55 125L56 126L55 125M75 125L69 153L88 154L91 130L75 125M216 130L219 154L238 153L232 125L216 130M251 125L252 126L251 125M12 126L13 127L12 126M265 126L266 127L265 126M16 127L16 130L17 130L16 127M26.3333 127.667L26.6667 128.333L26.3333 127.667M30 127L31 128L30 127z"/>
<path style="fill:#f3c901; stroke:none;" d="M105 128L105 136L202 136L202 128L105 128z"/>
<path style="fill:#5c6fbd; stroke:none;" d="M11 129L12 130L11 129M65 129L66 130L65 129M67 129L68 130L67 129M239 129L240 130L239 129M241 129L242 130L241 129M279 129L280 130L279 129M39 130L40 131L39 130M58 130L57 132L58 130z"/>
<path style="fill:#f3c901; stroke:none;" d="M59 130C55.9415 135.644 54.4205 144.748 56 151L58 151C59.4093 145.28 62.6446 135.004 59 130M247 130L249 151L251 151C252.513 145.011 251.539 134.428 247 130z"/>
<path style="fill:#5c6fbd; stroke:none;" d="M248 130L249 131L248 130M270 130L271 131L270 130M276 130L277 131L276 130M29.3333 131.667L29.6667 132.333L29.3333 131.667M64 131L65 132L64 131M93 131L90 154L111 154C110.974 144.485 110.203 140.008 100 140L101 137L100 137L100 139L99 139L104 136L93 131M213 131L203 136L208 139L207 139L207 137L206 137L207 140C196.797 140.008 196.026 144.485 196 154L217 154C216.995 146.657 216.917 137.414 213 131M242 131L243 132L242 131M249 131L250 132L249 131z"/>
<path style="fill:#32cb33; stroke:none;" d="M277 131L277 137L280 136L279 131L277 131z"/>
<path style="fill:#5c6fbd; stroke:none;" d="M10.3333 132.667L10.6667 133.333L10.3333 132.667M17 132L18 133L17 132M66 132L67 133L66 132M240 132L241 133L240 132M23 133L23 138L24 138L23 133M25 133L27 142L25 133M37 134L38 135L37 134M276 134L277 135L276 134M279 134L280 135L279 134M18 135L19 136L18 135M60 135L63 138L60 135M64 135L65 136L64 135M242 135L243 136L242 135M244 138L247 135L244 138M9.33333 136.667L9.66667 137.333L9.33333 136.667M35 136L36 137L35 136M63 136L64 137L63 136M243 136L244 137L243 136M277 138L280 137L277 138M28 137L29 138L28 137M33 137L34 138L33 137M55.6667 137.333L56.3333 137.667L55.6667 137.333z"/>
<path style="fill:#f3c901; stroke:none;" d="M101 137L101 139L206 139L206 137L101 137z"/>
<path style="fill:#5c6fbd; stroke:none;" d="M250.667 137.333L251.333 137.667L250.667 137.333z"/>
<path style="fill:#f7f7fa; stroke:none;" d="M267 152L280 149.975L293 152C290.884 147.824 285.47 137.634 280 137.634C274.65 137.634 268.875 147.798 267 152z"/>
<path style="fill:#5c6fbd; stroke:none;" d="M282 137L283 138L282 137M19 138L19 141L20 141L19 138M30 138L31 139L30 138M283 138L284 139L283 138M37 139L38 140L37 139z"/>
<path style="fill:#0a0904; stroke:none;" d="M100 139L100 140C105.251 140.019 109.064 140.128 110 146C112.84 138.666 105.067 139.001 100 139z"/>
<path style="fill:#5c6fbd; stroke:none;" d="M110 139L111 140L110 139z"/>
<path style="fill:#0a0904; stroke:none;" d="M111 139L111 140L114 140L111 139z"/>
<path style="fill:#5c6fbd; stroke:none;" d="M114 139L115 140L114 139z"/>
<path style="fill:#0a0904; stroke:none;" d="M114 143L115 143C119.442 138.87 120.861 143.743 121 148C123.624 141.686 117.097 135.296 114 143z"/>
<path style="fill:#5c6fbd; stroke:none;" d="M121 139L125 142L125 148L127 147L127 154L132 153L132 156L131 156L127 155C126.313 160.435 124.201 166.516 131 168L131 157L133 158L134 139C129.527 140.54 125.179 141.544 121 139z"/>
<path style="fill:#0a0904; stroke:none;" d="M122 139L122 140L125 140L122 139z"/>
<path style="fill:#5c6fbd; stroke:none;" d="M125 139L126 140L125 139z"/>
<path style="fill:#0a0904; stroke:none;" d="M125 142L133 140C129.625 138.595 127.147 139.023 125 142M134.667 139.333L135.333 139.667L134.667 139.333z"/>
<path style="fill:#5c6fbd; stroke:none;" d="M136 139L137 140L136 139z"/>
<path style="fill:#0a0904; stroke:none;" d="M136 142L144 140C140.625 138.595 138.147 139.023 136 142z"/>
<path style="fill:#5c6fbd; stroke:none;" d="M144 139L134 141L134 142L136 146L138 145L138 154L143 153L143 156L142 156C136.165 154.022 137.002 162.268 137 166L142 168L142 159L144 160L144 139z"/>
<path style="fill:#0a0904; stroke:none;" d="M145.667 139.333L146.333 139.667L145.667 139.333z"/>
<path style="fill:#5c6fbd; stroke:none;" d="M147 139L148 140L147 139z"/>
<path style="fill:#0a0904; stroke:none;" d="M147 142L153 140C153 145.287 154.212 151.126 149 154L149 143L148 143L148 156C154.359 156.293 153 163.115 153 168L150 168L150 163L149 163L148 169L159 169L158 163L157 163L157 168L154 168C154 163.115 152.641 156.293 159 156L159 143L158 143L158 154C152.788 151.126 154 145.287 154 140L160 142C156.966 137.794 150.034 137.794 147 142z"/>
<path style="fill:#5c6fbd; stroke:none;" d="M159 139L160 140L159 139z"/>
<path style="fill:#0a0904; stroke:none;" d="M160.667 139.333L161.333 139.667L160.667 139.333z"/>
<path style="fill:#5c6fbd; stroke:none;" d="M162 139L163 160L165 159L165 168L170 166C169.997 161.016 170.747 154.428 164 156L164 153L165 153L169 154L169 145L171 146L173 142L173 141L162 139z"/>
<path style="fill:#0a0904; stroke:none;" d="M163 139L163 140L171 142L163 139z"/>
<path style="fill:#5c6fbd; stroke:none;" d="M170 139L171 140L170 139z"/>
<path style="fill:#0a0904; stroke:none;" d="M171.667 139.333L172.333 139.667L171.667 139.333z"/>
<path style="fill:#5c6fbd; stroke:none;" d="M173 139L174 158L176 157L176 168C182.799 166.516 180.687 160.434 180 155L175 156L175 153L176 153L180 154L180 147L182 148L182 142L186 141C185.846 148.461 189.821 166.593 181 168L181 170L203 168L203 175L214 178L217 155L198 155C197.999 160.719 198.897 166.874 192 168L191 155L186 156L186 153L187 153L191 154L191 149L193 150C192.933 142.559 190.909 142.812 186 139C181.812 141.473 177.442 140.641 173 139z"/>
<path style="fill:#0a0904; stroke:none;" d="M174 139L174 140L182 142L174 139z"/>
<path style="fill:#5c6fbd; stroke:none;" d="M181 139L182 140L181 139z"/>
<path style="fill:#0a0904; stroke:none;" d="M182 139L182 140L185 140L182 139M186 141L192 143C192.598 138.991 188.294 138.377 186 141z"/>
<path style="fill:#5c6fbd; stroke:none;" d="M192 139L193 140L192 139z"/>
<path style="fill:#0a0904; stroke:none;" d="M193 139L193 140L196 140L193 139z"/>
<path style="fill:#5c6fbd; stroke:none;" d="M196 139L197 140L196 139z"/>
<path style="fill:#0a0904; stroke:none;" d="M196 146L197 146C197.936 140.128 201.749 140.019 207 140C200.939 137.457 196.368 139.358 196 146z"/>
<path style="fill:#f3c901; stroke:none;" d="M110 140L110 141L115 141L110 140z"/>
<path style="fill:#5c6fbd; stroke:none;" d="M114 150L116 149L116 154L121 153L121 156L120 156L116 155L115 168C108.103 166.874 109.001 160.719 109 155L90 155L93 178L104 175L104 168L126 170L126 168C123.255 167.562 121.099 166.988 120.323 163.942C118.736 157.716 122.639 150.972 120.941 144.059C118.704 134.947 114.037 145.905 114 150z"/>
<path style="fill:#f3c901; stroke:none;" d="M122 140L122 141L126 141L122 140M133 140L133 141L137 141L133 140M144 140L144 141L148 141L144 140z"/>
<path style="fill:#5c6fbd; stroke:none;" d="M149 142L144 142L144 143L147 142L149 143L149 154C154.67 152.118 153 144.991 153 140L149 142M154 140C154 144.99 152.33 152.118 158 154L158 143L163 143L163 142L158 142L154 140z"/>
<path style="fill:#f3c901; stroke:none;" d="M159 140L159 141L163 141L159 140M170 140L170 141L174 141L170 140M181 140L181 141L185 141L181 140M192 140L192 141L197 141L192 140z"/>
<path style="fill:#5c6fbd; stroke:none;" d="M28 141L29 142L28 141M111 141L111 142L114 142L111 141z"/>
<path style="fill:#0a0904; stroke:none;" d="M132 141L132 150L133 150L134 141L132 141M143 141L143 152L144 152L145 141L143 141M162 141L163 152L164 152L162 141M173 141L174 150L175 150L173 141M185 141L185 148L186 148L185 141z"/>
<path style="fill:#5c6fbd; stroke:none;" d="M193 141L193 142L196 142L193 141z"/>
<path style="fill:#f3c901; stroke:none;" d="M274 141L275 142L274 141M285 141L286 142L285 141z"/>
<path style="fill:#5c6fbd; stroke:none;" d="M8 142L8 146L9 146L8 142M27 142L28 143L27 142M33 142L34 143L33 142z"/>
<path style="fill:#f3c901; stroke:none;" d="M111 142L110 168L115 168L114 142L111 142M122 142L121 168L127 168L125 142L122 142M133 142L132 168L138 168L136 142L133 142M145 142L143 168L149 168L147 142L145 142M160 142L158 168L164 168L162 142L160 142M171 142L169 168L175 168L174 142L171 142M182 142L180 168L186 168L185 142L182 142M193 142L192 168L197 168L196 142L193 142z"/>
<path style="fill:#5c6fbd; stroke:none;" d="M26 143L27 144L26 143M32 143L33 144L32 143M51 146L53 144L56 146L55 143L51 146z"/>
<path style="fill:#f3c901; stroke:none;" d="M54 143L55 144L54 143z"/>
<path style="fill:#5c6fbd; stroke:none;" d="M59 143L59 145L61 145L59 143M247 143L246 145L248 145L247 143M251 146L256 146L252 143L251 146z"/>
<path style="fill:#f3c901; stroke:none;" d="M252 143L253 144L252 143M272 143L273 144L272 143M287 143L288 144L287 143z"/>
<path style="fill:#5c6fbd; stroke:none;" d="M25 144L26 145L25 144z"/>
<path style="fill:#f3c901; stroke:none;" d="M53 144C48.6749 150.525 47.689 159.435 54 165L51.3179 154L53 144M253 144L253 165C259.098 159.623 259.098 149.377 253 144z"/>
<path style="fill:#5c6fbd; stroke:none;" d="M18 145L19 146L18 145z"/>
<path style="fill:#0a0904; stroke:none;" d="M59 145L56 152L55 146L54 146C51.3506 152.142 51.3506 156.858 54 163L55 163L56 157L59 164L60 164C61.0471 156.878 62.7747 151.729 59 145z"/>
<path style="fill:#f3c901; stroke:none;" d="M60 145L60 164C64.7514 159.477 65.904 149.12 60 145z"/>
<path style="fill:#0a0904; stroke:none;" d="M137 145L137 157L138 157L143 156L143 153L142 153L138 154L137 145M169 145L169 154L164 153L164 156L165 156L169 157L170 157L169 145z"/>
<path style="fill:#f3c901; stroke:none;" d="M245 145C243.14 151.619 241.495 158.76 247 164L247 145L245 145z"/>
<path style="fill:#0a0904; stroke:none;" d="M247 145L247 164L248 164L251 157L252 163L253 163C255.649 156.858 255.649 152.142 253 146L252 146L251 152L247 145z"/>
<path style="fill:#5c6fbd; stroke:none;" d="M270 145L271 146L270 145z"/>
<path style="fill:#f3c901; stroke:none;" d="M271 145L272 146L271 145z"/>
<path style="fill:#5c6fbd; stroke:none;" d="M288.667 145.333L289.333 145.667L288.667 145.333M22 146L22 149L23 149L22 146M30 146L31 147L30 146M269 146L270 147L269 146M290 146L291 147L290 146M24.3333 147.667L24.6667 148.333L24.3333 147.667M50 147L51 148L50 147M53 147L54 148L53 147z"/>
<path style="fill:#0a0904; stroke:none;" d="M126 147L126 159L127 159L127 155L132 156L132 153L131 153L127 154L126 147M180 147L180 154L175 153L175 156L176 156L180 155L180 159L181 159L180 147z"/>
<path style="fill:#5c6fbd; stroke:none;" d="M253 147L254 148L253 147M256 147L257 148L256 147M268 147L269 148L268 147M291 147L292 148L291 147M60 148L61 149L60 148M246 148L247 149L246 148z"/>
<path style="fill:#f3c901; stroke:none;" d="M268 148L269 149L268 148z"/>
<path style="fill:#5c6fbd; stroke:none;" d="M277 151L283 151C280.546 148.703 279.454 148.703 277 151z"/>
<path style="fill:#f3c901; stroke:none;" d="M291.333 148.667L291.667 149.333L291.333 148.667z"/>
<path style="fill:#5c6fbd; stroke:none;" d="M28 149L29 150L28 149M58 149L59 150L58 149M63.3333 149.667L63.6667 150.333L63.3333 149.667z"/>
<path style="fill:#0a0904; stroke:none;" d="M115 149L115 162L116 162L116 155L121 156L121 153L120 153L116 154L115 149M191 149L191 154L186 153L186 156L187 156L191 155L191 162L192 162L191 149z"/>
<path style="fill:#5c6fbd; stroke:none;" d="M243.333 149.667L243.667 150.333L243.333 149.667M248 149L249 150L248 149z"/>
<path style="fill:#0a0904; stroke:none;" d="M271 154L271 155C279.316 153.036 280.684 153.036 289 155C281.51 149.1 279.081 150.608 271 154z"/>
<path style="fill:#5c6fbd; stroke:none;" d="M16 150L17 151L16 150M49 150L49 153L50 153L49 150M55 150L56 151L55 150M61 150L62 151L61 150M245 150L246 151L245 150M251 150L252 151L251 150M257 150L257 153L258 153L257 150M267 150L268 151L267 150z"/>
<path style="fill:#32cb33; stroke:none;" d="M263 154L263 155C269.073 157.996 267.461 163.309 271.434 167.772C283.669 181.513 290.111 158.693 297 155C285.469 150.207 274.904 154.097 263 154z"/>
<path style="fill:#5c6fbd; stroke:none;" d="M292 150L293 151L292 150M27 151L28 152L27 151M51 151L51 154L52 154L51 151M56 151L57 152L56 151M250 151L251 152L250 151M255 151L255 154L256 154L255 151M266 151L265 154C267.565 153.449 267.86 152.86 266 151M293 151L292 154L295 154L293 151M274 152L275 153L274 152M285 152L286 153L285 152z"/>
<path style="fill:#f3c901; stroke:none;" d="M292 152L293 153L292 152z"/>
<path style="fill:#5c6fbd; stroke:none;" d="M13 153L14 154L13 153M23 153L23 156L24 156L23 153z"/>
<path style="fill:#0a0904; stroke:none;" d="M268.667 153.333L269.333 153.667L268.667 153.333z"/>
<path style="fill:#5c6fbd; stroke:none;" d="M270.333 153.667L270.667 154.333L270.333 153.667z"/>
<path style="fill:#f3c901; stroke:none;" d="M271 153L272 154L271 153z"/>
<path style="fill:#5c6fbd; stroke:none;" d="M273 153L274 154L273 153M284 153L285 154L284 153M286 153L287 154L286 153M289.333 153.667L289.667 154.333L289.333 153.667z"/>
<path style="fill:#0a0904; stroke:none;" d="M290.667 153.333L291.333 153.667L290.667 153.333z"/>
<path style="fill:#5c6fbd; stroke:none;" d="M16 154L17 155L16 154M21 154L21 157L22 157L21 154M26.3333 154.667L26.6667 155.333L26.3333 154.667M36 154L37 155L36 154M51 155L51 158L52 158L51 155M69 156L75 184L91 179L88 155L69 156M148 164L150 163L150 168L153 168C153 159.182 148.048 150.449 148 164M154 168L157 168L157 163L159 164C158.952 150.449 154 159.182 154 168M219 155L216 179L232 184L238 156L219 155M255 155L255 158L256 158L255 155M262 155L262 156L266 156L262 155M295 155L295 156L298 156L295 155M8.33333 156.667L8.66667 157.333L8.33333 156.667M15 156L16 157L15 156M49 156L49 159L50 159L49 156M257 156L257 159L258 159L257 156M17 157L18 158L17 157M56 157L57 158L56 157M61.3333 157.667L61.6667 158.333L61.3333 157.667z"/>
<path style="fill:#0a0904; stroke:none;" d="M120 157L120 167L121 167L120 157M131 157L131 168L126 168L126 169L132 169L131 157M175 157L175 169L181 169L181 168L176 168L175 157M186 157L186 167L187 167L186 157z"/>
<path style="fill:#5c6fbd; stroke:none;" d="M245.333 157.667L245.667 158.333L245.333 157.667M250 157L251 158L250 157M34 158L35 159L34 158z"/>
<path style="fill:#f3c901; stroke:none;" d="M55 158C55.2735 164.369 55.3108 174.412 60 179L58 158L55 158z"/>
<path style="fill:#5c6fbd; stroke:none;" d="M63.3333 158.667L63.6667 159.333L63.3333 158.667M243.333 158.667L243.667 159.333L243.333 158.667z"/>
<path style="fill:#f3c901; stroke:none;" d="M249 158L247 179C251.689 174.412 251.727 164.369 252 158L249 158z"/>
<path style="fill:#5c6fbd; stroke:none;" d="M291 158L292 159L291 158M18 159L19 160L18 159M58 159L59 160L58 159z"/>
<path style="fill:#0a0904; stroke:none;" d="M142 159L142 168L139 165L138 165L137 169L143 169L142 159M164 159L164 169L170 169L169 165L168 165L165 168L164 159z"/>
<path style="fill:#5c6fbd; stroke:none;" d="M248 159L249 160L248 159M268 159L269 160L268 159M60 160L61 161L60 160M246 160L247 161L246 160M9.33333 161.667L9.66667 162.333L9.33333 161.667M17 161L18 162L17 161M30 161L31 162L30 161M50 161L51 162L50 161M53 161L54 162L53 161M253 161L254 162L253 161M256 161L257 162L256 161M25 162L26 163L25 162M18 163L19 164L18 163M53 166L56 163L53 166M61 163L62 164L61 163M245 163L246 164L245 163M251 163L254 166L251 163M52 164L53 165L52 164M59 164L59 166L61 164L59 164M246 164L248 166L248 164L246 164M254 164L255 165L254 164M10 165L11 166L10 165M19 165L20 166L19 165M23.6667 165.333L24.3333 165.667L23.6667 165.333M269 165L270 166L269 165M25 166L26 167L25 166M32 167L33 168L32 167M20 168L21 169L20 168z"/>
<path style="fill:#0a0904; stroke:none;" d="M115 168L115 169L121 169L115 168z"/>
<path style="fill:#5c6fbd; stroke:none;" d="M132 168L132 170L137 170L137 168L132 168M143 168L143 169L148 170L148 168L143 168M159 168L159 170L164 169L159 168M170 168L170 170L175 170L175 168L170 168z"/>
<path style="fill:#0a0904; stroke:none;" d="M186 168L186 169L192 169L186 168z"/>
<path style="fill:#5c6fbd; stroke:none;" d="M31 169L32 170L31 169M105 169L106 170L105 169z"/>
<path style="fill:#f3c901; stroke:none;" d="M105 170L105 171L202 171C196.219 166.789 181.112 169.074 174 169.487C152.118 170.756 126.239 164.62 105 170z"/>
<path style="fill:#5c6fbd; stroke:none;" d="M201 169L202 170L201 169M286 169L287 170L286 169M8 170L8 174L9 174L8 170M35 170L36 171L35 170M56 170L55 172L57 172L56 170M250 170L250 172L252 172L250 170M284 170L285 171L284 170M13 171L14 172L13 171M21 171L22 172L21 171M60 174L65 174C63.0727 171.495 60.831 170.142 60 174M105 171L105 172L202 172L172 171L105 171M242 174L244 172L247 174C246.169 170.142 243.927 171.495 242 174M14 172L15 173L14 172M24.3333 172.667L24.6667 173.333L24.3333 172.667M30 172L31 173L30 172z"/>
<path style="fill:#f3c901; stroke:none;" d="M54 172C52.3185 179.063 52.8725 192.959 63 192C64.3568 196.712 66.0294 202.395 71 204C70.0371 198.408 66.6929 185.889 60 186L62 192C55.5572 185.204 55.2993 180.879 56 172L54 172z"/>
<path style="fill:#0a0904; stroke:none;" d="M56 172C54.8926 180.763 56.0515 184.666 61 192L62 192L60 185L65 189L66 189C65.996 182.959 65.8356 178.16 61 174L60 179L58 179L56 172z"/>
<path style="fill:#f3c901; stroke:none;" d="M62 172L67 190L68 190C67.9992 182.867 68.0051 176.746 62 172M105 172L105 174L202 174L202 172L105 172M244 172C239.404 177.699 239.001 182.908 239 190L240 190L244 172z"/>
<path style="fill:#0a0904; stroke:none;" d="M250 172L249 179L247 179L246 174C241.164 178.16 241.004 182.959 241 189L242 189L247 185L245 192L246 192C250.37 185.523 254.108 179.727 250 172z"/>
<path style="fill:#f3c901; stroke:none;" d="M251 172C251.752 181.534 250.414 185.049 245 193C252.041 190.549 258.526 177.317 251 172z"/>
<path style="fill:#32cb33; stroke:none;" d="M278 172L280 179L278 172z"/>
<path style="fill:#5c6fbd; stroke:none;" d="M279.667 172.333L280.333 172.667L279.667 172.333M15 173L16 174L15 173M53 173L54 174L53 173M253 173L254 174L253 173M280.333 174.667L280.667 175.333L280.333 174.667M29 175L30 176L29 175M36 175L37 176L36 175M94 179L105 204L118 200L112 175L94 179M113 175L120 199L136 195L133 175L113 175M135 175L137 195L153 194L151.397 176.028L135 175M154 194L170 195L172 175L155.603 176.028L154 194M174 175L171 195L187 199L194 175L174 175M195 175L189 200L202 204L213 179L195 175M277 175L278 176L277 175M22.3333 176.667L22.6667 177.333L22.3333 176.667M66 176L67 177L66 176M240 176L241 177L240 176M18 177L19 178L18 177M57 177L58 178L57 177M64 177L65 178L64 177M242 177L243 178L242 177M249 177L250 178L249 177M28.3333 178.667L28.6667 179.333L28.3333 178.667M58 178L59 179L58 178M248 178L249 179L248 178M278 178L281 181L278 178M9.33333 179.667L9.66667 180.333L9.33333 179.667M65 179L66 180L65 179M67 179L68 180L67 179M239 179L240 180L239 179M241 179L242 180L241 179M275 179L276 180L275 179z"/>
<path style="fill:#f7f7fa; stroke:none;" d="M261 192L274.91 192.406L288 198C286.313 192.771 284.15 182.924 278.755 180.287C273.243 177.593 263.406 187.957 261 192z"/>
<path style="fill:#f3c901; stroke:none;" d="M278 179L279 180L278 179z"/>
<path style="fill:#5c6fbd; stroke:none;" d="M19 180L20 181L19 180M37 180L37 183L38 183L37 180M76 186C77.8355 192.372 84.5867 208.815 92.0394 210.006C95.8537 210.616 100.867 206.829 104 205L92 180L76 186M215 180L203 205C206.133 206.829 211.146 210.616 214.961 210.006C222.413 208.815 229.164 192.372 231 186L215 180z"/>
<path style="fill:#f3c901; stroke:none;" d="M273 181L274 182L273 181z"/>
<path style="fill:#5c6fbd; stroke:none;" d="M270 182L271 183L270 182z"/>
<path style="fill:#f3c901; stroke:none;" d="M271 182L272 183L271 182z"/>
<path style="fill:#5c6fbd; stroke:none;" d="M281.333 182.667L281.667 183.333L281.333 182.667M39 183L41 185L41 183L39 183M53 183L54 184L53 183M55 183L56 184L55 183M68 183L68 187L69 187L68 183M238 183L238 187L239 187L238 183M251 183L252 184L251 183M253 183L254 184L253 183M10.3333 184.667L10.6667 185.333L10.3333 184.667M268 184L269 185L268 184M20 185L20 191L21 191L20 185M60 185L61 186L60 185M63 185L64 186L63 185M243 185L244 186L243 185z"/>
<path style="fill:#f3c901; stroke:none;" d="M244 185L236 204C242.192 202 245.039 191.76 247 186L244 185z"/>
<path style="fill:#5c6fbd; stroke:none;" d="M246 185L247 186L246 185M266.667 185.333L267.333 185.667L266.667 185.333M25 186L25 189L26 189L25 186M54 186L55 187L54 186M252 186L253 187L252 186M264 186L265 187L264 186M28 187L29 188L28 187M35 187L36 188L35 187M38 187L39 188L38 187M41 187L42 188L41 187M57 187L58 188L57 187M60 187L61 188L60 187M64 187L65 188L64 187M242 187L243 188L242 187M246 187L247 188L246 187M249 187L250 188L249 187M263 187L264 188L263 187M11 188L12 189L11 188M55 188L56 189L55 188M58 188L59 189L58 188M248 188L249 189L248 188M251 188L252 189L251 188M42 189L43 190L42 189M59 189L60 190L59 189M65.6667 189.333L66.3333 189.667L65.6667 189.333M240.667 189.333L241.333 189.667L240.667 189.333M247 189L248 190L247 189M262 189L263 190L262 189M284 189L285 190L284 189M33 190L34 191L33 190M37.3333 190.667L37.6667 191.333L37.3333 190.667M60 190L61 191L60 190M246 190L247 191L246 190z"/>
<path style="fill:#f3c901; stroke:none;" d="M261 190L262 191L261 190z"/>
<path style="fill:#5c6fbd; stroke:none;" d="M285 190L286 191L285 190M29 191L29 196L30 196L29 191M66 191L67 192L66 191M240 191L241 192L240 191M260 191L257 192L257 193L260 191M273 191L274 192L273 191z"/>
<path style="fill:#0a0904; stroke:none;" d="M266 195L266 196C274.11 193.669 274.349 193.914 281 199L276 191L266 195z"/>
<path style="fill:#5c6fbd; stroke:none;" d="M286 191L287 192L286 191M15 192L16 193L15 192M19 192L20 193L19 192M22 192L23 193L22 192M26.3333 192.667L26.6667 193.333L26.3333 192.667M59 192L60 193L59 192M247 192L248 193L247 192z"/>
<path style="fill:#0a0904; stroke:none;" d="M261 192L261 193L265 195L265 194L261 192z"/>
<path style="fill:#5c6fbd; stroke:none;" d="M262 192L263 193L262 192M271 192L272 193L271 192z"/>
<path style="fill:#32cb33; stroke:none;" d="M256 193L256 194C263.762 197.917 257.556 207.143 265.105 211.91C278.772 220.542 280.549 202.17 291 202C287.736 198.667 284.341 198.72 280 200L275 192L256 193z"/>
<path style="fill:#5c6fbd; stroke:none;" d="M276 192L277 193L276 192M23 193L24 194L23 193M61 193L62 194L61 193M67 193L68 194L67 193M239 193L240 194L239 193M245 193L246 194L245 193M264 193L265 194L264 193z"/>
<path style="fill:#f3c901; stroke:none;" d="M268 193L269 194L268 193z"/>
<path style="fill:#5c6fbd; stroke:none;" d="M269 193L270 194L269 193z"/>
<path style="fill:#f3c901; stroke:none;" d="M277 193L278 194L277 193z"/>
<path style="fill:#5c6fbd; stroke:none;" d="M63 194L64 195L63 194M243 194L244 195L243 194M258 194L259 195L258 194M265.333 194.667L265.667 195.333L265.333 194.667z"/>
<path style="fill:#f3c901; stroke:none;" d="M266 194L267 195L266 194z"/>
<path style="fill:#5c6fbd; stroke:none;" d="M276 194L277 195L276 194M286 194L287 195L286 194M36.3333 195.667L36.6667 196.333L36.3333 195.667M27 196L28 197L27 196M45 196L46 197L45 196M64 196L65 197L64 196z"/>
<path style="fill:#f3c901; stroke:none;" d="M70 196L80 213L81 213C80.6059 205.404 76.7521 199.513 70 196z"/>
<path style="fill:#5c6fbd; stroke:none;" d="M71 196L72 197L71 196M235 196L236 197L235 196z"/>
<path style="fill:#f3c901; stroke:none;" d="M236 196C230.164 200.487 226.39 205.488 226 213L227 213L236 196z"/>
<path style="fill:#5c6fbd; stroke:none;" d="M242 196L243 197L242 196M260 196L261 197L260 196M279 196L280 197L279 196M287 196L288 197L287 196M14 197L15 198L14 197M30.3333 197.667L30.6667 198.333L30.3333 197.667M138 198L138 200L139 201L153 200L153 197L138 198M154 197L154 200L168 201L169 200L169 198L154 197M280 197L281 198L280 197M28 198L29 199L28 198M65 198L66 199L65 198M69 198L70 199L69 198z"/>
<path style="fill:#0a0904; stroke:none;" d="M70 198L70 205L66 199L65 199C66.6946 207.989 68.9054 212.281 77 217L73 209L80 213L70 198z"/>
<path style="fill:#5c6fbd; stroke:none;" d="M74 198L75 199L74 198M121 203L137 201L137 198C131.963 198.22 124.204 198.773 121 203M170 198L170 201L186 203C182.796 198.773 175.037 198.22 170 198M232 198L233 199L232 198z"/>
<path style="fill:#0a0904; stroke:none;" d="M236 198L227 213L234 209L230 217C238.095 212.281 240.305 207.989 242 199L241 199L237 205L236 198z"/>
<path style="fill:#5c6fbd; stroke:none;" d="M237 198L238 199L237 198M241 198L242 199L241 198M279 198L280 199L279 198M281 198L282 199L281 198M15 199L16 200L15 199M25 199L26 200L25 199M46 199L47 200L46 199z"/>
<path style="fill:#f3c901; stroke:none;" d="M63 199C63.1923 208.027 66.953 215.313 76 218C71.8785 210.658 65.4393 208.591 65 199L63 199z"/>
<path style="fill:#5c6fbd; stroke:none;" d="M71 199L72 200L71 199M75 199L76 200L75 199M231 199L232 200L231 199M235 199L236 200L235 199z"/>
<path style="fill:#f3c901; stroke:none;" d="M242 199C241.561 208.591 235.122 210.658 231 218C240.047 215.313 243.808 208.027 244 199L242 199z"/>
<path style="fill:#5c6fbd; stroke:none;" d="M280 199L281 200L280 199M14.3333 200.667L14.6667 201.333L14.3333 200.667M66 200L67 201L66 200M70 200L71 201L70 200M73 200L74 201L73 200M76 200L77 201L76 200M230 200L231 201L230 200M233 200L234 201L233 200M236 200L237 201L236 200M240 200L241 201L240 200M65 201L65 205L66 205L65 201M74 201L75 202L74 201M143 201L143 202L151 202L143 201z"/>
<path style="fill:#f3c901; stroke:none;" d="M75 229L75 230C78.6445 233.644 86.2916 244.677 92 243.825C97.806 242.958 104.578 235.47 110 232.759C121.196 227.161 133.601 224.35 146 223.17C161.94 221.652 179.429 224.743 194 231.312C199.726 233.893 210.12 244.295 216 243.883C221.604 243.49 228.241 233.759 232 230C223.067 217.423 206.377 210.636 192 206.579C153.745 195.786 104.501 200.111 75 229z"/>
<path style="fill:#5c6fbd; stroke:none;" d="M156 201L156 202L164 202L156 201M232 201L233 202L232 201M241 201L241 205L242 205L241 201M260 201L261 202L260 201M287.667 201.333L288.333 201.667L287.667 201.333M27 202L28 203L27 202M36 202L37 203L36 202M75 202L76 203L75 202M107 206L107 207L120 202L107 206M134.667 202.333L135.333 202.667L134.667 202.333M171.667 202.333L172.333 202.667L171.667 202.333M187 202L200 207L187 202M231 202L232 203L231 202M17 203L18 204L17 203M31 203L32 204L31 203M78 203L79 204L78 203M127.667 203.333L128.333 203.667L127.667 203.333M178.667 203.333L179.333 203.667L178.667 203.333M228 203L229 204L228 203M15 204L16 205L15 204M46 204L47 205L46 204M69 204L70 205L69 204M122.667 204.333L123.333 204.667L122.667 204.333M183.667 204.333L184.333 204.667L183.667 204.333M237 204L238 205L237 204M63 205L64 206L63 205M77 205L78 206L77 205M79 205L80 206L79 205M118 205L119 206L118 205M188 205L189 206L188 205M227 205L228 206L227 205M229 205L230 206L229 205M243 205L244 206L243 205M19 206L20 207L19 206M30 206L31 207L30 206M37 206L38 207L37 206M114.667 206.333L115.333 206.667L114.667 206.333M191.667 206.333L192.333 206.667L191.667 206.333M260 206L261 207L260 206M20 207L21 208L20 207M31 207L32 208L31 207M45 207L46 208L45 207M66 207L67 208L66 207M80 207L81 208L80 207M102 208L102 209L106 208L102 208M111 207L112 208L111 207M150 207L150 212L151 212L150 207z"/>
<path style="fill:#0a0904; stroke:none;" d="M151 207C150.841 209.01 150.46 210.994 150.305 213C149.247 226.63 167.416 208.253 151 207z"/>
<path style="fill:#5c6fbd; stroke:none;" d="M156 207L157 208L156 207z"/>
<path style="fill:#0a0904; stroke:none;" d="M161 207L160 219L162 219L162 214L166 214L166 219L168 219L169 208L167 212L162 212L163 207L161 207z"/>
<path style="fill:#5c6fbd; stroke:none;" d="M195 207L196 208L195 207M201 207L201 208L205 209L205 208L201 207M226 207L227 208L226 207M240 207L241 208L240 207M16 208L17 209L16 208M21 208L22 209L21 208M35 208L36 209L35 208M64 208L65 209L64 208M78 208L78 211L79 211L78 208M108 208L109 209L108 208M133.333 208.667L133.667 209.333L133.333 208.667M138 208L139 209L138 208z"/>
<path style="fill:#0a0904; stroke:none;" d="M139 208L137 220L138 220L145 219L141 208L139 208z"/>
<path style="fill:#5c6fbd; stroke:none;" d="M157 208L158 209L157 208M171.667 208.333L172.333 208.667L171.667 208.333M198 208L199 209L198 208M228 208L228 211L229 211L228 208M242 208L243 209L242 208M261 208L262 209L261 208M282 208L283 209L282 208M22 209L23 210L22 209M36 209L37 210L36 209M38 209L39 210L38 209M67 209L68 210L67 209M73 209L74 210L73 209z"/>
<path style="fill:#f3c901; stroke:none;" d="M74 209C73.6713 214.684 78.0966 218.707 83 221L84 220L74 209z"/>
<path style="fill:#5c6fbd; stroke:none;" d="M75 209L76 210L75 209M100.667 209.333L101.333 209.667L100.667 209.333M105 209L106 210L105 209z"/>
<path style="fill:#0a0904; stroke:none;" d="M131 209L129 214L128 214L128 210L126 210L128 221L129 221L129 216L136 220L133 209L131 209z"/>
<path style="fill:#5c6fbd; stroke:none;" d="M141 209L142 210L141 209M152 209L153 210L152 209z"/>
<path style="fill:#f3c901; stroke:none;" d="M152 210L152 211L156 211L152 210z"/>
<path style="fill:#5c6fbd; stroke:none;" d="M155 209L156 210L155 209M168 209L168 212L169 212L168 209z"/>
<path style="fill:#0a0904; stroke:none;" d="M171 209C170.889 211.583 169.754 215.266 170.693 217.718C174.025 226.417 178.366 212.414 178 209L177 209L175 219L173 219L173 209L171 209z"/>
<path style="fill:#5c6fbd; stroke:none;" d="M178 209L179 210L178 209M201 209L202 210L201 209M205.667 209.333L206.333 209.667L205.667 209.333M231 209L232 210L231 209z"/>
<path style="fill:#f3c901; stroke:none;" d="M223 220L224 221C228.903 218.707 233.329 214.684 233 209L223 220z"/>
<path style="fill:#5c6fbd; stroke:none;" d="M233 209L234 210L233 209M239 209L240 210L239 209M65 210L66 211L65 210M99 210L100 211L99 210M103 210L104 211L103 210M166.333 210.667L166.667 211.333L166.333 210.667z"/>
<path style="fill:#0a0904; stroke:none;" d="M181 210L181 222L186 215L187 215L187 224L188 224L193 213L189 219L188 219L188 212L183 218L182 218L183 210L181 210z"/>
<path style="fill:#5c6fbd; stroke:none;" d="M203 210L204 211L203 210M207 210L208 211L207 210M241 210L242 211L241 210M25 211L26 212L25 211M97 211L98 212L97 211M132 211L133 212L132 211M140 211L139 214L140 214L140 211M142 211L143 212L142 211M152 211L153 212L152 211M155 211L156 212L155 211M157 211L158 212L157 211M162 211L163 212L162 211M178.333 211.667L178.667 212.333L178.333 211.667M186.667 211.333L187.333 211.667L186.667 211.333M209 211L210 212L209 211M35 212L36 213L35 212M50 212L51 213L50 212M73 212L74 213L73 212M78 212L79 213L78 212M98 212L99 213L98 212M117 212L116 225L117 225L117 212z"/>
<path style="fill:#0a0904; stroke:none;" d="M118 212L118 224L119 224C120.903 220.802 122.602 220.921 126 222L120 212L118 212z"/>
<path style="fill:#f3c901; stroke:none;" d="M140 212L139 215L140 212z"/>
<path style="fill:#5c6fbd; stroke:none;" d="M160 212L160 215L161 215L160 212M172.333 212.667L172.667 213.333L172.333 212.667M176 212L177 213L176 212M185 212L186 213L185 212M188.333 212.667L188.667 213.333L188.333 212.667M208 212L209 213L208 212M228 212L229 213L228 212M233 212L234 213L233 212M18 213L19 214L18 213M74 213L75 214L74 213M79 213L80 214L79 213M96 213L97 214L96 213M131 213L132 214L131 213M137.333 213.667L137.667 214.333L137.333 213.667M157 213L158 214L157 213M170.333 213.667L170.667 214.333L170.333 213.667M210 213L211 214L210 213M227 213L228 214L227 213M232 213L233 214L232 213M268 213L269 214L268 213M276 213L277 214L276 213M30 214L31 215L30 214M48 214L48 220L49 220L48 214M73 214L74 215L73 214M80 214L81 215L80 214M94 214L95 215L94 214M110 214L111 215L110 214M121 214L122 215L121 214M126 214L127 215L126 214M141 214L142 215L141 214z"/>
<path style="fill:#f3c901; stroke:none;" d="M152 214L156 217L152 214z"/>
<path style="fill:#5c6fbd; stroke:none;" d="M162 214L163 215L162 214M184 214L185 215L184 214M212 214L213 215L212 214M226 214L227 215L226 214M233 214L234 215L233 214M265 214L266 215L265 214z"/>
<path style="fill:#32cb33; stroke:none;" d="M266 214L265 219C267.28 217.36 267.5 216.362 266 214z"/>
<path style="fill:#5c6fbd; stroke:none;" d="M267 214L268 215L267 214M37 215L38 216L37 215M92 215L93 216L92 215M107 215L108 216L107 215z"/>
<path style="fill:#0a0904; stroke:none;" d="M105 217L111 227L109 222L116 225C113.804 218.851 112.262 213.581 105 217z"/>
<path style="fill:#5c6fbd; stroke:none;" d="M112 215L113 216L112 215M119 215L120 216L119 215M186 215L186 219L187 219L186 215z"/>
<path style="fill:#0a0904; stroke:none;" d="M190 225L199 227L199 215L190 225z"/>
<path style="fill:#5c6fbd; stroke:none;" d="M214 215L215 216L214 215M19 216L20 217L19 216M53 216L54 217L53 216M71 216L72 217L71 216M105 216L106 217L105 216z"/>
<path style="fill:#f3c901; stroke:none;" d="M119 216L121 219L121 216L119 216z"/>
<path style="fill:#5c6fbd; stroke:none;" d="M129 216L130 217L129 216M133 216L134 217L133 216M152 216L153 217L152 216M182 216L182 218L184 216L182 216M199 216L200 217L199 216M235 216L236 217L235 216M264 216L265 217L264 216M54 217L55 218L54 217M73 217L74 218L73 217M76 217L77 218L76 217M89 217L90 218L89 217M108 217L107 219L108 217z"/>
<path style="fill:#f3c901; stroke:none;" d="M108 220L112 219L108 220z"/>
<path style="fill:#5c6fbd; stroke:none;" d="M111 217L112 218L111 217M113 217L114 218L113 217M121.333 217.667L121.667 218.333L121.333 217.667M175 217L176 218L175 217M177 217L178 218L177 217M217 217L218 218L217 217M230 217L231 218L230 217M233 217L234 218L233 217M20 218L21 219L20 218M34 218L35 219L34 218M85 218L86 219L85 218M105 218L106 219L105 218M119 218L120 219L119 218M124 218L125 219L124 218M132 218L133 219L132 218M136.333 218.667L136.667 219.333L136.333 218.667M138 218L139 219L138 218M143 218L144 219L143 218M145 218L146 219L145 218M150 218L151 219L150 218M156 218L157 219L156 218M173.667 218.333L174.333 218.667L173.667 218.333M180 218L180 222L181 222L180 218M184 218L185 219L184 218M188 218L189 219L188 218M194 218L195 219L194 218M204 218L205 219L204 218z"/>
<path style="fill:#0a0904; stroke:none;" d="M205 218L200 229L201 229L204 223L205 223L205 231L211 221L210 221L207 227L206 227L205 218z"/>
<path style="fill:#5c6fbd; stroke:none;" d="M221 218L222 219L221 218M258 220L261 219L258 220z"/>
<path style="fill:#f3c901; stroke:none;" d="M261 218L262 219L261 218z"/>
<path style="fill:#5c6fbd; stroke:none;" d="M262 218L262 219L266 221L262 218z"/>
<path style="fill:#0a0904; stroke:none;" d="M264 218L265 219L264 218z"/>
<path style="fill:#5c6fbd; stroke:none;" d="M39 219L40 220L39 219M42 219L43 220L42 219M79 219L80 220L79 219M86 219L87 220L86 219M98 219L99 220L98 219z"/>
<path style="fill:#0a0904; stroke:none;" d="M99 219L100 232L101 232C102.222 228.219 104.206 227.942 108 228L99 219z"/>
<path style="fill:#5c6fbd; stroke:none;" d="M113 219L114 220L113 219M127.333 219.667L127.667 220.333L127.333 219.667M129.333 219.667L129.667 220.333L129.333 219.667M166.667 219.333L167.333 219.667L166.667 219.333M193 219L194 220L193 219z"/>
<path style="fill:#f3c901; stroke:none;" d="M196 219L195 222L196 219z"/>
<path style="fill:#5c6fbd; stroke:none;" d="M206 219L206 227L207 227L206 219M220 219L221 220L220 219M227 219L228 220L227 219M254 219L254 220L257 220L254 219z"/>
<path style="fill:#f7f7fa; stroke:none;" d="M242 224C244.764 230.317 249.795 230.834 256 229L259 240L266 242C266.426 236.551 268.742 224.995 264.373 220.607C259.942 216.157 246.731 222.16 242 224z"/>
<path style="fill:#5c6fbd; stroke:none;" d="M21 220L22 221L21 220M35 220L36 221L35 220M80 220L81 221L80 220M106 220L107 221L106 220M121 220L122 221L121 220M123 220L124 221L123 220M134 220L135 221L134 220M172.667 220.333L173.333 220.667L172.667 220.333M175 220L176 221L175 220M183 220L184 221L183 220M203 220L204 221L203 220M210 220L211 221L210 220M226 220L227 221L226 220M252 220L253 221L252 220M79 222L79 223L84 222L79 222z"/>
<path style="fill:#0a0904; stroke:none;" d="M82 221L83 222L82 221z"/>
<path style="fill:#5c6fbd; stroke:none;" d="M119.333 221.667L119.667 222.333L119.333 221.667M128 221L129 222L128 221M209 221L210 222L209 221M211 221L212 222L211 221M223 221L223 222L228 223L228 222L223 221z"/>
<path style="fill:#0a0904; stroke:none;" d="M224 221L225 222L224 221z"/>
<path style="fill:#5c6fbd; stroke:none;" d="M246 221L247 222L246 221M250 221L251 222L250 221z"/>
<path style="fill:#f3c901; stroke:none;" d="M251 221L252 222L251 221z"/>
<path style="fill:#5c6fbd; stroke:none;" d="M22 222L23 223L22 222M40 222L41 223L40 222M43 222L44 223L43 222M58 222L59 223L58 222z"/>
<path style="fill:#0a0904; stroke:none;" d="M81 222L82 223L81 222z"/>
<path style="fill:#5c6fbd; stroke:none;" d="M109.333 222.667L109.667 223.333L109.333 222.667M202 222L203 223L202 222z"/>
<path style="fill:#0a0904; stroke:none;" d="M225 222L226 223L225 222z"/>
<path style="fill:#f3c901; stroke:none;" d="M245 222L246 223L245 222z"/>
<path style="fill:#5c6fbd; stroke:none;" d="M36 223L37 224L36 223z"/>
<path style="fill:#f3c901; stroke:none;" d="M100 223L102 226L100 223z"/>
<path style="fill:#5c6fbd; stroke:none;" d="M107 223L108 224L107 223M143 223L143 224L147 224L143 223M160 223L160 224L164 224L160 223M186 223L187 224L186 223M194 223L195 224L194 223M204 223L205 224L204 223M208 223L209 224L208 223M210 223L211 224L210 223M242 223L242 224L245 224L242 223M23 224L24 225L23 224M90 224L90 225L93 225L90 224M98.3333 224.667L98.6667 225.333L98.3333 224.667M135.667 224.333L136.333 224.667L135.667 224.333M170.667 224.333L171.333 224.667L170.667 224.333M196 224L197 225L196 224M201 224L202 225L201 224M203 224L204 225L203 224M235 224L236 225L235 224z"/>
<path style="fill:#32cb33; stroke:none;" d="M236 224C238.763 230.391 234.676 233.252 235.828 239C236.806 243.88 245.704 253.22 251 252.713C258.482 251.997 259.48 244.594 268 247L258.564 239.44L254.436 232.029L246.17 230.688L236 224z"/>
<path style="fill:#5c6fbd; stroke:none;" d="M237 224L238 225L237 224z"/>
<path style="fill:#f3c901; stroke:none;" d="M241 224L242 225L241 224z"/>
<path style="fill:#5c6fbd; stroke:none;" d="M265.333 224.667L265.667 225.333L265.333 224.667M44.3333 225.667L44.6667 226.333L44.3333 225.667M49 225L50 226L49 225M60 225L61 226L60 225M88 225L89 226L88 225z"/>
<path style="fill:#0a0904; stroke:none;" d="M97 230L96 230C92.8676 235.206 89.849 230.141 90 226L94 226C81.7479 221.345 94.589 245.073 97 230z"/>
<path style="fill:#5c6fbd; stroke:none;" d="M100 225L101 226L100 225M102 225L103 226L102 225M108 225L109 226L108 225M110 225L111 226L110 225M130.667 225.333L131.333 225.667L130.667 225.333M147 226L152 236L153 236L152 225L147 226M155 225L154 236L155 236L160 226L155 225M175.667 225.333L176.333 225.667L175.667 225.333M209 225L210 226L209 225z"/>
<path style="fill:#0a0904; stroke:none;" d="M208 233C211.611 232.88 212.92 233.512 214 237L216 237L219 226C214.029 225.823 210.842 229.141 208 233z"/>
<path style="fill:#5c6fbd; stroke:none;" d="M218 225L219 226L218 225M241 225L245 229L241 225M37 226L38 227L37 226M41 226L42 227L41 226M90.6667 226.333L91.3333 226.667L90.6667 226.333M93 226L94 227L93 226M126 226L127 227L126 226M138 227L150 237C147.963 229.875 146.048 225.107 138 227M157 237L169 227C160.952 225.107 159.037 229.875 157 237M180 226L181 227L180 226M196 226L197 227L196 226M200 226L201 227L200 226M202 226L203 227L202 226M204 226L204 230L205 230L204 226M237 226L238 227L237 226z"/>
<path style="fill:#0a0904; stroke:none;" d="M241 226L242 227L241 226z"/>
<path style="fill:#5c6fbd; stroke:none;" d="M25 227L26 228L25 227M87 227L87 230L88 230L87 227M89 227L90 228L89 227M109 227L110 228L109 227M123 227L124 228L123 227M132 228L146 237C142.514 232.442 138.026 227.81 132 228M161 237L175 228C168.974 227.81 164.486 232.442 161 237M183 227L184 228L183 227M197.667 227.333L198.333 227.667L197.667 227.333M208 227L209 228L208 227M213 227L214 228L213 227M218 227L219 228L218 227z"/>
<path style="fill:#0a0904; stroke:none;" d="M242 227L243 228L242 227z"/>
<path style="fill:#5c6fbd; stroke:none;" d="M266 227L267 228L266 227M26 228L27 229L26 228M50 228L51 229L50 228M106 228L107 229L106 228M120 228L121 229L120 228M201 228L202 229L201 228z"/>
<path style="fill:#f3c901; stroke:none;" d="M215 228L213 231L215 228z"/>
<path style="fill:#0a0904; stroke:none;" d="M243 228L244 229L243 228z"/>
<path style="fill:#5c6fbd; stroke:none;" d="M27 229L28 230L27 229M38 229L39 230L38 229M61 229L61 233L62 233L61 229M89 229L90 230L89 229M117 229L118 230L117 229M122 232L143 238C137.353 233.317 129.024 227.621 122 232M164 237L164 238L185 232C177.467 227.303 170.991 234.074 164 237M189 229L190 230L189 229M207 229L208 230L207 229z"/>
<path style="fill:#0a0904; stroke:none;" d="M244 229L245 232C256.587 229.858 252.965 238.342 261 241L261 240L255.437 231.028L244 229z"/>
<path style="fill:#5c6fbd; stroke:none;" d="M255 229L256 230L255 229M40 230L41 231L40 230M42.3333 230.667L42.6667 231.333L42.3333 230.667M45 230L45 233L46 233L45 230M95 230L95 233L96 233L95 230M97 230L97 233L98 233L97 230M99.3333 230.667L99.6667 231.333L99.3333 230.667M101 230L102 231L101 230M114 230L115 231L114 230M119 230L120 231L119 230M187 230L188 231L187 230M192 230L193 231L192 230M209 230L210 231L209 230M215 230L216 231L215 230M217 230L218 231L217 230M256 230L257 231L256 230M266 230L267 231L266 230M31 231L32 232L31 231M37 231L38 232L37 231M90 231L91 232L90 231M112 231L113 232L112 231M194 231L195 232L194 231M208 231L209 232L208 231M214 231L215 232L214 231M247 231L248 232L247 231M39 232L40 233L39 232M91 232L92 233L91 232M110 232L111 233L110 232M196 232L197 233L196 232M212 232L213 233L212 232M266 232L267 233L266 232M53 233L54 234L53 233M89 233L90 234L89 233M92 233L93 234L92 233M94 233L95 234L94 233M216 233L217 234L216 233M237 233L238 234L237 233z"/>
<path style="fill:#f3c901; stroke:none;" d="M257 233L258 234L257 233z"/>
<path style="fill:#5c6fbd; stroke:none;" d="M31 234L31 236L33 236L31 234M42 234L43 235L42 234M47 234L48 235L47 234M65.3333 234.667L65.6667 235.333L65.3333 234.667M90 234L91 235L90 234M96 234L97 235L96 234M106 234L107 235L106 234z"/>
<path style="fill:#f3c901; stroke:none;" d="M107 236L124 243C120.375 237.975 113.261 232.11 107 236z"/>
<path style="fill:#5c6fbd; stroke:none;" d="M111.667 234.333L112.333 234.667L111.667 234.333M194.667 234.333L195.333 234.667L194.667 234.333z"/>
<path style="fill:#f3c901; stroke:none;" d="M183 243L200 236C193.74 232.11 186.625 237.975 183 243z"/>
<path style="fill:#5c6fbd; stroke:none;" d="M200 234L201 235L200 234M257 234L258 235L257 234M267.333 234.667L267.667 235.333L267.333 234.667M48 235L49 236L48 235z"/>
<path style="fill:#f3c901; stroke:none;" d="M66 235L67 244C70.9785 240.554 69.9165 238.022 66 235z"/>
<path style="fill:#5c6fbd; stroke:none;" d="M92 235L93 236L92 235M104 235L104 236L108 238L108 237L104 235z"/>
<path style="fill:#0a0904; stroke:none;" d="M105.667 235.333L106.333 235.667L105.667 235.333z"/>
<path style="fill:#5c6fbd; stroke:none;" d="M115 235L116 236L115 235M191 235L192 236L191 235z"/>
<path style="fill:#0a0904; stroke:none;" d="M184 243L184 244L191 243L187 247L187 248C194.347 249.043 199.245 246.357 203 240L196 242C198.647 238.451 200.567 237.067 205 238L205 243L214 245L214 246L207 246L207 247L216 247C206.59 233.753 196.313 234.692 184 243z"/>
<path style="fill:#5c6fbd; stroke:none;" d="M202 235L203 236L202 235M256 235L257 236L256 235M55 236L56 237L55 236z"/>
<path style="fill:#0a0904; stroke:none;" d="M91 247L100 247L100 246L93 246L93 245L102 243L102 238L105 237C99.3974 236.518 93.9908 242.79 91 247M107 236L108 237L107 236z"/>
<path style="fill:#5c6fbd; stroke:none;" d="M109 236L109 237L112 237L109 236M117 236L118 237L117 236M189 236L190 237L189 236M195 236L195 237L198 237L195 236M199 238L202 237L199 238z"/>
<path style="fill:#f3c901; stroke:none;" d="M206 247L206 248C212.039 251.441 221.351 256.926 223 264L233 275L234 275L235 257L254 265C250.049 257.578 237.794 236.739 228 237.167C223.566 237.362 220.373 243.296 217 245.593C213.728 247.82 209.745 247.028 206 247z"/>
<path style="fill:#5c6fbd; stroke:none;" d="M32 237L33 238L32 237M76 237L77 238L76 237M101 237L102 238L101 237M103 237L103 241L104 241L103 237z"/>
<path style="fill:#f3c901; stroke:none;" d="M103 238L105 241L102 240C104.838 248.324 113.678 252.437 122 250L105 241L110 242C108.791 238.171 106.89 237.274 103 238z"/>
<path style="fill:#0a0904; stroke:none;" d="M108 237L111 242L105 241C108.29 247.048 113.349 248.944 120 248L120 247L116 243L123 244C118.576 239.285 114.467 237.138 108 237z"/>
<path style="fill:#5c6fbd; stroke:none;" d="M114 237L115 238L114 237M192 237L193 238L192 237z"/>
<path style="fill:#f3c901; stroke:none;" d="M197 242L204 238C200.11 237.274 198.209 238.171 197 242z"/>
<path style="fill:#5c6fbd; stroke:none;" d="M203 237L204 238L203 237M205 237L206 238L205 237M230 237L231 238L230 237M258 237L259 238L258 237z"/>
<path style="fill:#f3c901; stroke:none;" d="M266 237L267 238L266 237z"/>
<path style="fill:#5c6fbd; stroke:none;" d="M60.3333 238.667L60.6667 239.333L60.3333 238.667M75 238L76 239L75 238M120 238L121 239L120 238M186 238L187 239L186 238M204 238L205 239L204 238M231 238L232 239L231 238M33 239L34 240L33 239M48 239L49 240L48 239M53 239L54 240L53 239M57 239L58 240L57 239M98 239L99 240L98 239M118 239L119 240L118 239M121 239L122 240L121 239M185 239L186 240L185 239M188 239L189 240L188 239M203.333 239.667L203.667 240.333L203.333 239.667M208 239L209 240L208 239M266.333 239.667L266.667 240.333L266.333 239.667M37 240L38 241L37 240M49 240L50 241L49 240M54 240L55 241L54 240M66 240L67 241L66 240M71 240L68 245L69 245L71 240z"/>
<path style="fill:#0a0904; stroke:none;" d="M104 240L105 241L104 240z"/>
<path style="fill:#5c6fbd; stroke:none;" d="M110.333 240.667L110.667 241.333L110.333 240.667M119 240L120 241L119 240M122 240L123 241L122 240M184 240L185 241L184 240M187 240L188 241L187 240M196.333 240.667L196.667 241.333L196.333 240.667z"/>
<path style="fill:#f3c901; stroke:none;" d="M204 240C197.42 246.133 193.774 247.995 185 249L185 250C191.46 251.52 205.214 249.106 204 240z"/>
<path style="fill:#5c6fbd; stroke:none;" d="M235 240L237 242L235 240M261.667 240.333L262.333 240.667L261.667 240.333M38 241L39 242L38 241z"/>
<path style="fill:#0a0904; stroke:none;" d="M71 241L72 242L71 241z"/>
<path style="fill:#f3c901; stroke:none;" d="M94 246L102 245L100 241L94 246z"/>
<path style="fill:#5c6fbd; stroke:none;" d="M106 241L107 242L106 241M200 241L201 242L200 241z"/>
<path style="fill:#f3c901; stroke:none;" d="M207 241L205 245L213 246L207 241z"/>
<path style="fill:#0a0904; stroke:none;" d="M235 241L236 242L235 241M262.667 241.333L263.333 241.667L262.667 241.333z"/>
<path style="fill:#5c6fbd; stroke:none;" d="M264.333 241.667L264.667 242.333L264.333 241.667M35 242L36 243L35 242M40 242L41 243L40 242z"/>
<path style="fill:#0a0904; stroke:none;" d="M70 242L71 243L70 242z"/>
<path style="fill:#5c6fbd; stroke:none;" d="M102 242L103 243L102 242M105 242L106 243L105 242M201 242L202 243L201 242M204 242L205 243L204 242z"/>
<path style="fill:#0a0904; stroke:none;" d="M236 242L236 243L242 247L236 242z"/>
<path style="fill:#5c6fbd; stroke:none;" d="M42 243L43 244L42 243z"/>
<path style="fill:#0a0904; stroke:none;" d="M69 243L70 244L69 243z"/>
<path style="fill:#5c6fbd; stroke:none;" d="M93 243L94 244L93 243M101 243L102 244L101 243M116 243L117 244L116 243z"/>
<path style="fill:#f3c901; stroke:none;" d="M116 244C120.45 248.82 130.65 251.6 137 250C132.478 245.709 122.091 242.731 116 244z"/>
<path style="fill:#5c6fbd; stroke:none;" d="M120 243L121 244L120 243M123 243L123 245L125 245L123 243M133 243L134 244L133 243z"/>
<path style="fill:#f3c901; stroke:none;" d="M131 246L150 248C145.63 243.621 135.48 240.116 131 246z"/>
<path style="fill:#5c6fbd; stroke:none;" d="M142 243L143 244L142 243M164 243L165 244L164 243z"/>
<path style="fill:#f3c901; stroke:none;" d="M157 247L157 248L176 246C171.495 240.082 162.221 244.032 157 247z"/>
<path style="fill:#5c6fbd; stroke:none;" d="M173 243L174 244L173 243M183 243L182 245L184 245L183 243M186 243L187 244L186 243z"/>
<path style="fill:#f3c901; stroke:none;" d="M170 249L170 250C176.35 251.6 186.55 248.82 191 244C184.569 242.66 175.783 246.094 170 249z"/>
<path style="fill:#5c6fbd; stroke:none;" d="M190 243L191 244L190 243M205 243L206 244L205 243M213 243L214 244L213 243M237 243L238 244L237 243M44 244L45 245L44 244M61 244L62 245L61 244M92 244L93 245L92 244M94 244L95 245L94 244M145 244L146 245L145 244M161 244L162 245L161 244M212 244L213 245L212 244M214 244L215 245L214 244M238 244L239 245L238 244M37 245L38 246L37 245M48.6667 245.333L49.3333 245.667L48.6667 245.333M55 245L56 246L55 245M67 245L68 246L67 245M91 245L92 246L91 245M93 245L94 246L93 245M98 245L98 246L102 247L102 246L98 245M104 245L105 246L104 245M116 245L117 246L116 245M127 245L128 246L127 245M130.333 245.667L130.667 246.333L130.333 245.667M134.667 245.333L135.333 245.667L134.667 245.333M142 245L143 246L142 245M147 245L148 246L147 245M159 245L160 246L159 245M164 245L165 246L164 245M172 245L173 246L172 245M176.333 245.667L176.667 246.333L176.333 245.667M179 245L180 246L179 245M190 245L191 246L190 245M202 245L203 246L202 245M205 246L205 247L209 246L205 246M213 245L214 246L213 245M215 245L216 246L215 245M239 245L240 246L239 245M261 245L262 246L261 245M264 245L265 246L264 245M53 246L54 247L53 246M56 246L57 247L56 246M62 246L63 247L62 246M66 246L67 247L66 246M90 246L91 247L90 246M105 246L106 247L105 246M109 246L110 247L109 246M117 246L118 247L117 246M144 246L145 247L144 246M162 246L163 247L162 246M189 246L190 247L189 246M197 246L198 247L197 246M201 246L202 247L201 246M216 246L217 247L216 246M240 246L241 247L240 246M57 247L58 248L57 247M65 247L66 248L65 247M91 247L91 248L94 248L91 247M120.333 247.667L120.667 248.333L120.333 247.667M134 247L135 248L134 247M146 247L147 248L146 247M160 247L161 248L160 247M172 247L173 248L172 247M186.333 247.667L186.667 248.333L186.333 247.667M213 247L213 248L216 248L213 247M241 247L241 248L244 249L241 247M258 247L259 248L258 247M267 247L268 248L267 247M39 248L40 249L39 248M58 248L59 249L58 248M99 248L100 249L99 248M108 248L109 249L108 248M113.667 248.333L114.333 248.667L113.667 248.333M117.667 248.333L118.333 248.667L117.667 248.333z"/>
<path style="fill:#0a0904; stroke:none;" d="M121.667 248.333L122.333 248.667L121.667 248.333z"/>
<path style="fill:#5c6fbd; stroke:none;" d="M123.667 248.333L124.333 248.667L123.667 248.333M182 248L182 249L185 250L182 248z"/>
<path style="fill:#0a0904; stroke:none;" d="M184.667 248.333L185.333 248.667L184.667 248.333z"/>
<path style="fill:#5c6fbd; stroke:none;" d="M188.667 248.333L189.333 248.667L188.667 248.333M192.667 248.333L193.333 248.667L192.667 248.333M198 248L199 249L198 248M207 248L208 249L207 248z"/>
<path style="fill:#0a0904; stroke:none;" d="M242 248L243 249L242 248z"/>
<path style="fill:#5c6fbd; stroke:none;" d="M40 249L41 250L40 249M62 249L63 250L62 249M110 249L111 250L110 249M122 249L123 250L122 249M127 249L128 250L127 249z"/>
<path style="fill:#f3c901; stroke:none;" d="M143 250L143 252L164 252L164 250L143 250z"/>
<path style="fill:#5c6fbd; stroke:none;" d="M179 249L180 250L179 249M196 249L197 250L196 249z"/>
<path style="fill:#0a0904; stroke:none;" d="M243 249L244 250L243 249M62 250L63 251L62 250z"/>
<path style="fill:#5c6fbd; stroke:none;" d="M96 250L97 251L96 250M113 250L114 251L113 250M130 250L130 252L132 250L130 250M136 250L137 251L136 250M170 250L171 251L170 250M175 250L177 252L177 250L175 250M186 250L187 251L186 250M193 250L194 251L193 250M210 250L211 251L210 250z"/>
<path style="fill:#0a0904; stroke:none;" d="M244 250L245 251L244 250z"/>
<path style="fill:#f3c901; stroke:none;" d="M128 251C132.576 257.061 144.698 261.739 150 254C140.377 255.415 137.076 253.872 128 251z"/>
<path style="fill:#5c6fbd; stroke:none;" d="M134 251L135 252L134 251M172 251L173 252L172 251z"/>
<path style="fill:#f3c901; stroke:none;" d="M157 254C163.326 260.846 173.884 257.777 179 251C169.924 253.872 166.623 255.415 157 254z"/>
<path style="fill:#0a0904; stroke:none;" d="M245 251L246 252L245 251M246 252L247 253L246 252z"/>
<path style="fill:#5c6fbd; stroke:none;" d="M59.6667 253.333L60.3333 253.667L59.6667 253.333M92 253L93 254L92 253M129 253L130 254L129 253M133 253L134 254L133 253M173 253L174 254L173 253M177 253L178 254L177 253z"/>
<path style="fill:#32cb33; stroke:none;" d="M199 253C199.757 262.011 188.615 261.556 185.742 269.004C178.299 288.301 204.955 280.296 211 287L212 287L207 277L207 276L212 268L204.028 262.61L199 253z"/>
<path style="fill:#5c6fbd; stroke:none;" d="M214 253L215 254L214 253M246 253L247 254L246 253M44 254L45 255L44 254z"/>
<path style="fill:#0a0904; stroke:none;" d="M59 254L60 255L59 254z"/>
<path style="fill:#5c6fbd; stroke:none;" d="M91 254L92 255L91 254M130 254L131 255L130 254M146 254L147 255L146 254M150 254L151 255L150 254M156 254L157 255L156 254M160 254L161 255L160 254M176 254L177 255L176 254M247 254L248 255L247 254M45 255L46 256L45 255z"/>
<path style="fill:#0a0904; stroke:none;" d="M58 255L59 256L58 255z"/>
<path style="fill:#5c6fbd; stroke:none;" d="M137.667 255.333L138.333 255.667L137.667 255.333M143 255L144 256L143 255M157 255L158 256L157 255M163 255L164 256L163 255M168.667 255.333L169.333 255.667L168.667 255.333M204 255L204 256L207 256L204 255M46 256L47 257L46 256M57 256L56 258L58 258L57 256M134 256L135 257L134 256M172 256L173 257L172 256z"/>
<path style="fill:#f7f7fa; stroke:none;" d="M204 256C205.614 262.401 207.695 264.672 214 267C211.573 272.84 209.503 276.159 213 282L215 282C217.943 278.195 224.604 273.014 225.044 267.985C225.941 257.727 210.885 256.27 204 256z"/>
<path style="fill:#5c6fbd; stroke:none;" d="M208 256L209 257L208 256M213 256L214 257L213 256M47 257L48 258L47 257M70.6667 257.333L71.3333 257.667L70.6667 257.333M137 257L138 258L137 257M145 257L146 258L145 257M161 257L162 258L161 257M169 257L170 258L169 257M204 257L204 261L205 261L204 257M214 257L215 258L214 257M235 257L236 258L235 257M249 257L250 258L249 257M48 258L49 259L48 258z"/>
<path style="fill:#0a0904; stroke:none;" d="M56 258L57 259L56 258z"/>
<path style="fill:#5c6fbd; stroke:none;" d="M68 258L69 259L68 258z"/>
<path style="fill:#0a0904; stroke:none;" d="M219 258L224 263L219 258z"/>
<path style="fill:#5c6fbd; stroke:none;" d="M220 258L221 259L220 258M238 258L239 259L238 258M55.3333 259.667L55.6667 260.333L55.3333 259.667M66 259L67 260L66 259z"/>
<path style="fill:#0a0904; stroke:none;" d="M67.6667 259.333L68.3333 259.667L67.6667 259.333z"/>
<path style="fill:#f3c901; stroke:none;" d="M67 260L67 261L71 259L67 260z"/>
<path style="fill:#5c6fbd; stroke:none;" d="M85 259L84 261L85 259z"/>
<path style="fill:#0a0904; stroke:none;" d="M86 259L87 260L86 259z"/>
<path style="fill:#5c6fbd; stroke:none;" d="M87 259L88 260L87 259M221 259L222 260L221 259M240 259L241 260L240 259M64 260L65 261L64 260z"/>
<path style="fill:#0a0904; stroke:none;" d="M85 260L86 261L85 260z"/>
<path style="fill:#5c6fbd; stroke:none;" d="M196 260L197 261L196 260M222 260L223 261L222 260M242 260L243 261L242 260M251 260L252 261L251 260z"/>
<path style="fill:#0a0904; stroke:none;" d="M54 261L55 262L54 261z"/>
<path style="fill:#5c6fbd; stroke:none;" d="M62 261L63 262L62 261M70 261L71 262L70 261z"/>
<path style="fill:#0a0904; stroke:none;" d="M84 261L85 262L84 261z"/>
<path style="fill:#5c6fbd; stroke:none;" d="M194 261L195 262L194 261z"/>
<path style="fill:#f3c901; stroke:none;" d="M204 261L205 262L204 261z"/>
<path style="fill:#5c6fbd; stroke:none;" d="M223 261L224 262L223 261M244 261L245 262L244 261M54 262L55 263L54 262M60 262L61 263L60 262z"/>
<path style="fill:#0a0904; stroke:none;" d="M83 262L84 263L83 262z"/>
<path style="fill:#5c6fbd; stroke:none;" d="M88 262L89 263L88 262M102.667 262.333L103.333 262.667L102.667 262.333M113.667 262.333L114.333 262.667L113.667 262.333M191 262L192 263L191 262M204 262L205 263L204 262M246 262L247 263L246 262M252 262L253 263L252 262z"/>
<path style="fill:#0a0904; stroke:none;" d="M82 263L75 274L112 278L112 277C102.152 272.779 89.3919 270.832 82 263z"/>
<path style="fill:#5c6fbd; stroke:none;" d="M97 263L98 264L97 263M117 263L118 264L117 263M206 263L207 264L206 263z"/>
<path style="fill:#0a0904; stroke:none;" d="M224 263L227 266L224 263z"/>
<path style="fill:#5c6fbd; stroke:none;" d="M55 264L56 265L55 264M82 264L83 265L82 264M86 264L87 265L86 264M93 264L94 265L93 264M119 264L120 265L119 264M188 264L189 265L188 264M208 264L209 265L208 264M224 264L225 265L224 264M251 264L252 265L251 264M53 265L54 266L53 265M87 265L88 266L87 265M90.6667 265.333L91.3333 265.667L90.6667 265.333M94 265L94 266L97 266L94 265M187 265L188 266L187 265M225 265L226 266L225 265M253 265L254 266L253 265M79 266L80 267L79 266z"/>
<path style="fill:#0a0904; stroke:none;" d="M91 266L91 267L105 271C101.123 266.108 96.8997 266.004 91 266z"/>
<path style="fill:#5c6fbd; stroke:none;" d="M100 266L101 267L100 266M211 266L212 267L211 266z"/>
<path style="fill:#f3c901; stroke:none;" d="M212 266L213 267L212 266z"/>
<path style="fill:#5c6fbd; stroke:none;" d="M226.333 266.667L226.667 267.333L226.333 266.667M72 267L72 276L73 276L72 267M78 267L79 268L78 267M88 267L89 268L88 267z"/>
<path style="fill:#0a0904; stroke:none;" d="M211 267C210.565 274.092 207.719 276.163 212 283L213 283C210.198 276.172 211.22 273.68 214 267L211 267z"/>
<path style="fill:#5c6fbd; stroke:none;" d="M228 267L229 268L228 267M93 268L94 269L93 268M103 268L104 269L103 268M123 268L124 269L123 268M213 268L214 269L213 268M234 268L234 276L235 276L234 268M97.6667 269.333L98.3333 269.667L97.6667 269.333M76 270L77 271L76 270M91.6667 270.333L92.3333 270.667L91.6667 270.333M102 270L103 271L102 270M124 270L125 271L124 270M212 270L213 271L212 270M224 270L225 271L224 270M230 270L231 271L230 270M97 271L97 272L100 272L97 271M104.667 271.333L105.333 271.667L104.667 271.333M102 272L103 273L102 272M184.333 272.667L184.667 273.333L184.333 272.667M211 272L212 273L211 272M223 272L224 273L223 272M74 273L75 274L74 273M221 273L222 274L221 273M232 273L233 274L232 273M120.667 274.333L121.333 274.667L120.667 274.333z"/>
<path style="fill:#0a0904; stroke:none;" d="M114 276L114 277L130 278C124.844 273.754 120.124 274.813 114 276z"/>
<path style="fill:#5c6fbd; stroke:none;" d="M124 274L125 275L124 274M210 274L211 275L210 274z"/>
<path style="fill:#f3c901; stroke:none;" d="M220 274L221 275L220 274z"/>
<path style="fill:#5c6fbd; stroke:none;" d="M76 275L77 276L76 275M79 275L80 276L79 275M99.6667 275.333L100.333 275.667L99.6667 275.333M103.667 275.333L104.333 275.667L103.667 275.333M108 275L109 276L108 275M113 275L113 276L117 276L113 275M126 275L127 276L126 275M130 275L131 276L130 275M220 275L221 276L220 275M82.6667 276.333L83.3333 276.667L82.6667 276.333M95.6667 276.333L96.3333 276.667L95.6667 276.333M107 276L108 277L107 276M110 276L111 277L110 276M128 276L129 277L128 276M132 276L133 277L132 276M182.667 276.333L183.333 276.667L182.667 276.333M207 276L208 277L207 276M209.333 276.667L209.667 277.333L209.333 276.667M79 277L80 278L79 277M115 277L116 278L115 277M134 277L135 278L134 277z"/>
<path style="fill:#32cb33; stroke:none;" d="M161 284L161 285C167.986 284.941 179.623 282.95 184 277L161 284z"/>
<path style="fill:#5c6fbd; stroke:none;" d="M185 277L186 278L185 277M219 277L220 278L219 277z"/>
<path style="fill:#0a0904; stroke:none;" d="M112 278L113 279L112 278z"/>
<path style="fill:#5c6fbd; stroke:none;" d="M113.333 278.667L113.667 279.333L113.333 278.667M127 278L128 279L127 278M136 278L137 279L136 278M177 278L178 279L177 278M210 278L211 279L210 278M218 278L219 279L218 278M82 279L83 280L82 279z"/>
<path style="fill:#0a0904; stroke:none;" d="M114 279L115 280L114 279z"/>
<path style="fill:#5c6fbd; stroke:none;" d="M115 279L118 282L118 281L118 280L115 279M119 279L119 280L124 280L119 279M138 279L139 280L138 279M181 279L182 280L181 279M186 279L187 280L186 279M211 279L212 280L211 279M216 279L217 280L216 279M84 280L85 281L84 280z"/>
<path style="fill:#0a0904; stroke:none;" d="M116 280L117 281L116 280z"/>
<path style="fill:#5c6fbd; stroke:none;" d="M130.667 280.333L131.333 280.667L130.667 280.333M134 280L135 281L134 280M141 280L142 281L141 280M172 280L173 281L172 280M179 280L180 281L179 280M215 280L216 281L215 280M126.667 281.333L127.333 281.667L126.667 281.333M135 281L136 282L135 281M143.667 281.333L144.333 281.667L143.667 281.333M169 281L170 282L169 281M176 281L177 282L176 281M211 281L212 282L211 281M122 282L123 283L122 282M137 282L138 283L137 282M147.667 282.333L148.333 282.667L147.667 282.333M165 282L166 283L165 282M174 282L175 283L174 282M189 282L190 283L189 282M213 282L214 283L213 282M139 283L140 284L139 283M151.667 283.333L152.333 283.667L151.667 283.333M161 283L162 284L161 283M171 283L172 284L171 283M191 283L192 284L191 283M202 283L203 284L202 283M208 283L209 284L208 283M212 283L212 286L213 286L212 283M92 284L93 285L92 284M117 284L118 285L117 284M141 284L142 285L141 284M156.667 284.333L157.333 284.667L156.667 284.333M159.667 284.333L160.333 284.667L159.667 284.333M168 284L169 285L168 284M194 284L195 285L194 284M198 284L199 285L198 284M209 284L210 285L209 284M94 285L95 286L94 285M144.667 285.333L145.333 285.667L144.667 285.333M161.667 285.333L162.333 285.667L161.667 285.333M96 286L97 287L96 286M115 286L116 287L115 286M146 286L146 287L151 287L146 286M166 286L167 287L166 286M99 287L100 288L99 287M141 287L142 288L141 287z"/>
<path style="fill:#32cb33; stroke:none;" d="M121 298L153 288C143.378 283.963 127.273 290.429 121 298z"/>
<path style="fill:#5c6fbd; stroke:none;" d="M153 287L153 288L157 288L153 287M169.667 287.333L170.333 287.667L169.667 287.333M211 287L212 288L211 287M102.667 288.333L103.333 288.667L102.667 288.333M111 288L112 289L111 288M137 288L138 289L137 288M151.667 288.333L152.333 288.667L151.667 288.333M160 288L161 289L160 288M172 288L173 289L172 288M134 289L135 290L134 289M145.667 289.333L146.333 289.667L145.667 289.333M164 289L165 290L164 289M175 289L176 290L175 289M131 290L132 291L131 290M142 290L143 291L142 290M177 290L178 291L177 290M129 291L130 292L129 291M139 291L140 292L139 291M169 291L170 292L169 291M127 292L128 293L127 292M180 292L181 293L180 292M135 293L136 294L135 293M172 293L173 294L172 293M124 294L125 295L124 294M183 294L184 295L183 294M132 295L133 296L132 295M184 295L185 296L184 295M131 296L132 297L131 296M185 296L186 297L185 296M130 297L131 298L130 297M124.667 298.333L125.333 298.667L124.667 298.333M129 298L130 299L129 298M181.667 298.333L182.333 298.667L181.667 298.333z"/>
</svg>
